<svg width="181" height="575" viewBox="0 0 181 575" fill="none" xmlns="http://www.w3.org/2000/svg">
    <g opacity="0.1">
        <path fill-rule="evenodd" clip-rule="evenodd" d="M429.585 119.67H233.452L172.83 306.057L331.522 421.256L490.213 306.057L429.585 119.67ZM166.583 308.09L229.593 114.348H433.446L496.463 308.09L331.523 427.835L166.583 308.09Z" fill="white"/>
        <path fill-rule="evenodd" clip-rule="evenodd" d="M435.888 110.61H227.168L162.652 308.911L331.522 431.469L500.404 308.911L435.888 110.61ZM156.719 310.842L223.504 105.579H439.548L506.326 310.842L331.523 437.7L156.719 310.842Z" fill="white"/>
        <path fill-rule="evenodd" clip-rule="evenodd" d="M442.176 101.576H220.871L152.469 311.765L331.52 441.675L510.578 311.765L442.176 101.576ZM146.856 313.582L217.401 96.8096H445.646L516.191 313.582L331.52 447.564L146.856 313.582Z" fill="white"/>
        <path fill-rule="evenodd" clip-rule="evenodd" d="M448.477 92.5288H214.576L142.278 314.626L331.527 451.888L520.775 314.626L448.477 92.5288ZM138.314 317.29L136.993 316.33L211.308 88.041H451.752L526.054 316.33L331.527 457.43L138.314 317.29Z" fill="white"/>
        <path fill-rule="evenodd" clip-rule="evenodd" d="M454.762 83.4881H208.279L132.087 317.468L331.521 462.088L530.954 317.468L454.762 83.4881ZM127.129 319.083L205.206 79.2722H457.829L535.918 319.083L331.52 467.295L127.129 319.083Z" fill="white"/>
        <path fill-rule="evenodd" clip-rule="evenodd" d="M461.064 75.5311H201.981L121.9 321.426L331.523 473.39L541.145 321.426L461.064 75.5311ZM117.265 322.921L199.11 71.5991H463.935L545.78 322.921L331.522 478.255L117.265 322.921Z" fill="white"/>
        <path fill-rule="evenodd" clip-rule="evenodd" d="M467.572 66.484H196.569L112.806 324.277L332.067 483.596L551.334 324.277L467.572 66.484ZM108.499 325.672L193.914 62.8306H470.23L555.645 325.672L332.069 488.121L108.499 325.672Z" fill="white"/>
        <path fill-rule="evenodd" clip-rule="evenodd" d="M473.869 57.4502H190.27L102.612 327.125L332.07 493.802L561.534 327.125L473.869 57.4502ZM99.6256 329.144L98.6348 328.418L187.82 54.0618H476.329L565.508 328.418L332.068 497.986L99.6256 329.144Z" fill="white"/>
        <path fill-rule="evenodd" clip-rule="evenodd" d="M480.159 48.3972H183.983L92.4382 329.978L332.071 504.008L571.71 329.978L480.159 48.3972ZM88.771 331.164L181.723 45.2927H482.426L575.372 331.164L332.071 507.85L88.771 331.164Z" fill="white"/>
        <path fill-rule="evenodd" clip-rule="evenodd" d="M581.901 332.836L486.461 39.357H177.688L82.2407 332.836L332.071 514.22L581.901 332.836ZM79.7406 334.526L78.9072 333.921L175.301 37.5019L175.623 36.5239H488.519L585.235 333.921L332.904 517.116L332.071 517.716L79.7406 334.526Z" fill="white"/>
        <path fill-rule="evenodd" clip-rule="evenodd" d="M492.756 30.3097H171.385L72.0552 335.68L332.074 524.419L592.086 335.68L492.756 30.3097ZM69.0425 336.665L169.528 27.7549H494.612L595.097 336.665L332.073 527.58L69.0425 336.665Z" fill="white"/>
        <path fill-rule="evenodd" clip-rule="evenodd" d="M499.048 21.2635H165.09L61.8592 338.545L332.072 534.632L602.279 338.545L499.048 21.2635ZM59.8501 339.901L59.1807 339.422L163.169 19.7749L163.428 18.9863H500.715L604.703 338.633L604.962 339.422L332.072 537.446L59.8501 339.901Z" fill="white"/>
        <path fill-rule="evenodd" clip-rule="evenodd" d="M505.349 13.3132H158.792L51.6727 342.486L332.068 545.927L612.469 342.486L505.349 13.3132ZM49.9048 343.678L49.3174 343.249L157.107 12.0074L157.34 11.3135H506.803L614.605 342.555L614.826 343.249L332.069 548.407L49.9048 343.678Z" fill="white"/>
        <path fill-rule="evenodd" clip-rule="evenodd" d="M622.643 345.342L511.643 4.28537H152.507L41.5009 345.342L332.072 556.133L622.643 345.342ZM39.9707 346.371L39.4526 345.998L151.053 3.15027L151.249 2.54468H512.899L624.493 345.399L624.688 345.998L332.582 557.893L332.071 558.272L39.9707 346.371Z" fill="white"/>
        <path fill-rule="evenodd" clip-rule="evenodd" d="M517.939 -4.76716H146.204L31.3025 348.195L332.068 566.345L632.834 348.195L517.939 -4.76716ZM30.0132 349.066L29.5898 348.75L144.984 -5.7134L145.142 -6.22437H518.994L634.395 348.252L634.553 348.75L332.068 568.136L30.0132 349.066Z" fill="white"/>
        <path fill-rule="evenodd" clip-rule="evenodd" d="M643.026 351.049L524.236 -13.814H139.914L21.1169 351.049L332.072 576.538L643.026 351.049ZM20.0809 351.749L19.7271 351.49L138.922 -14.5895L139.055 -14.9932H525.096L644.284 351.087L644.417 351.49L332.426 577.743L332.072 578.001L20.0809 351.749Z" fill="white"/>
        <path fill-rule="evenodd" clip-rule="evenodd" d="M653.206 354.572L530.527 -22.8648H133.616L10.9313 354.572L332.065 587.838L653.206 354.572ZM10.135 355.109L9.86328 354.92L132.959 -23.7622H531.185L654.28 354.92L332.331 588.767L332.065 588.962L10.135 355.109Z" fill="white"/>
        <path fill-rule="evenodd" clip-rule="evenodd" d="M126.859 -32.531L126.79 -32.3099L0 357.662L0.189625 357.801L332.072 598.827L332.255 598.688L664.144 357.662L664.081 357.448L537.291 -32.531H126.859ZM0.738857 357.423L127.326 -31.9052H536.822L663.404 357.423L332.071 598.038L0.738857 357.423Z" fill="white"/>
    </g>
</svg>
