<svg width="192" height="200" viewBox="0 0 192 200" fill="none" xmlns="http://www.w3.org/2000/svg">
    <path fill-rule="evenodd" clip-rule="evenodd" d="M182.584 125.547L191.088 132.07C188.729 140.589 185.212 148.745 180.637 156.308L170.072 154.6L161.409 153.2C156.339 160.072 150.174 166.065 143.16 170.938L144.309 179.635L145.721 190.245C138.027 194.602 129.773 197.884 121.188 200L114.927 191.325L109.781 184.21C101.337 185.481 92.7422 185.362 84.3367 183.859L79.0078 190.813L72.4957 199.317C68.2406 198.141 64.0721 196.673 60.0199 194.922C55.9667 193.177 52.0375 191.157 48.2597 188.877L49.9558 178.301L51.3562 169.649C44.492 164.57 38.5012 158.406 33.6195 151.4L24.9218 152.55L14.3117 153.95C9.95678 146.255 6.67406 138.001 4.55464 129.417L13.2296 123.156L20.3449 118.01C20.0605 116.109 19.8441 114.185 19.696 112.261L41.9867 109.586C42.4862 118.363 45.0359 126.902 49.4312 134.516C53.8265 142.131 59.9451 148.609 67.2962 153.432C74.6472 158.254 83.0263 161.287 91.7611 162.287C100.496 163.287 109.344 162.226 117.594 159.189C125.845 156.152 133.269 151.224 139.271 144.799C145.274 138.375 149.687 130.634 152.157 122.196C154.627 113.758 155.085 104.859 153.495 96.212C151.905 87.5651 148.31 79.4112 143 72.4043L159.314 56.8875C160.497 58.3557 161.625 59.8585 162.695 61.3957L171.406 60.2457L182.016 58.8457C186.37 66.5368 189.653 74.7872 191.772 83.3676L183.098 89.6402L175.971 94.7746C177.245 103.218 177.13 111.813 175.629 120.219L182.584 125.547ZM17.3171 93.9094C17.2828 95.4805 17.2828 97.0516 17.3398 98.6113L39.8238 92.327C40.405 82.8554 43.3717 73.6846 48.4481 65.6672C53.5245 57.6499 60.5457 51.0463 68.859 46.4705C77.1722 41.8947 86.5075 39.4953 95.9969 39.4953C105.486 39.4953 114.822 41.8948 123.135 46.4707L136.955 28.5746C135.532 27.7094 134.075 26.8785 132.595 26.1043L132.652 17.327L132.719 6.62578C124.547 3.25892 115.952 1.02952 107.174 0L102.028 9.39219L97.8273 17.0875C89.2923 16.8776 80.7808 18.0699 72.632 20.6168L66.4601 14.3668L58.9351 6.74961C50.7788 10.1558 43.126 14.6602 36.189 20.1379L39.1945 30.4062L41.6554 38.8309C35.4735 44.7188 30.2977 51.5795 26.3335 59.1406L17.5675 59.0723L6.85503 59.0039C5.18004 63.0875 3.78043 67.2786 2.66558 71.5492C1.55824 75.8224 0.744238 80.1662 0.229248 84.5504L9.62144 89.6961L17.3171 93.9094Z" fill="#262527"/>
    <path fill-rule="evenodd" clip-rule="evenodd" d="M134.883 113.775L120.823 89.4356L106.775 65.0958C105.903 63.5833 104.648 62.3271 103.136 61.4538C101.624 60.5804 99.9089 60.1206 98.1629 60.1206C96.417 60.1206 94.7018 60.5804 93.1899 61.4538C91.6781 62.3271 90.4229 63.5833 89.5506 65.0958L75.5022 89.4356L61.4428 113.775C60.5705 115.287 60.1116 117.002 60.1123 118.748C60.113 120.494 60.5733 122.209 61.4469 123.72C62.3205 125.232 63.5766 126.487 65.0889 127.359C66.6013 128.231 68.3166 128.69 70.0624 128.689H126.265C128.011 128.689 129.726 128.231 131.238 127.358C132.75 126.486 134.006 125.231 134.879 123.72C135.753 122.208 136.213 120.494 136.214 118.748C136.214 117.002 135.755 115.287 134.883 113.775ZM100.969 116.189C100.969 116.933 100.673 117.647 100.147 118.173C99.6208 118.699 98.907 118.995 98.1627 118.995C97.4185 118.995 96.7047 118.699 96.1784 118.173C95.6522 117.647 95.3565 116.933 95.3565 116.189V115.29C95.3565 114.546 95.6522 113.832 96.1784 113.306C96.7047 112.78 97.4185 112.484 98.1627 112.484C98.907 112.484 99.6208 112.78 100.147 113.306C100.673 113.832 100.969 114.546 100.969 115.29V116.189ZM100.969 104.793C100.969 105.537 100.673 106.251 100.147 106.777C99.6208 107.304 98.907 107.599 98.1627 107.599C97.4185 107.599 96.7047 107.304 96.1784 106.777C95.6522 106.251 95.3565 105.537 95.3565 104.793V78.1879C95.3565 77.4437 95.6522 76.7299 96.1784 76.2036C96.7047 75.6774 97.4185 75.3817 98.1627 75.3817C98.907 75.3817 99.6208 75.6774 100.147 76.2036C100.673 76.7299 100.969 77.4437 100.969 78.1879V104.793Z" fill="#FD5C70"/>
</svg>
