<svg width="150" height="150" viewBox="0 0 150 150" fill="none" xmlns="http://www.w3.org/2000/svg">
    <path d="M147.5 75C147.5 116.58 112.525 149.967 70.38 147.357C34.27 145.12 4.88001 115.73 2.64501 79.62C0.0325129 37.475 33.42 2.5 75 2.5C86.42 2.5 97.2325 5.135 106.85 9.8525C109.428 11.1175 110.373 14.3275 108.95 16.8225L108.94 16.84C107.625 19.145 104.755 20.0025 102.375 18.83C92.83 14.13 81.9175 11.8425 70.4 12.665C40.15 14.8225 15.445 39.085 12.7525 69.2925C9.40251 106.89 39.5325 138.448 76.66 137.478C108.455 136.648 134.995 111.433 137.323 79.7125C137.928 71.4725 136.935 63.495 134.575 56.14C133.828 53.8075 134.915 51.29 137.105 50.195C139.84 48.8275 143.193 50.195 144.12 53.1075C146.315 60.01 147.5 67.365 147.5 75Z" fill="#71CFBD"/>
    <path d="M38.5251 56.18L78.0601 109.672C81.0451 113.712 87.1201 113.362 89.6376 109.007L146.768 10.1125C149.743 4.96246 142.955 -0.215041 138.908 4.11996L79.3876 67.875L44.8526 48.76C40.1851 46.1775 35.3351 51.8625 38.5251 56.18Z" fill="#262527"/>
</svg>
