<svg width="26" height="26" viewBox="0 0 26 26" fill="none" xmlns="http://www.w3.org/2000/svg">
    <path d="M12.9999 2.58333C7.26033 2.58333 2.58325 7.26042 2.58325 13C2.58325 18.7396 7.26033 23.4167 12.9999 23.4167C18.7395 23.4167 23.4166 18.7396 23.4166 13C23.4166 7.26042 18.7395 2.58333 12.9999 2.58333ZM17.1666 13.7813H13.7812V17.1667C13.7812 17.5938 13.427 17.9479 12.9999 17.9479C12.5728 17.9479 12.2187 17.5938 12.2187 17.1667V13.7813H8.83325C8.40617 13.7813 8.052 13.4271 8.052 13C8.052 12.5729 8.40617 12.2188 8.83325 12.2188H12.2187V8.83333C12.2187 8.40625 12.5728 8.05208 12.9999 8.05208C13.427 8.05208 13.7812 8.40625 13.7812 8.83333V12.2188H17.1666C17.5937 12.2188 17.9478 12.5729 17.9478 13C17.9478 13.4271 17.5937 13.7813 17.1666 13.7813Z" fill="#262527"/>
</svg>
