<svg width="59" height="59" viewBox="0 0 59 59" fill="none" xmlns="http://www.w3.org/2000/svg">
    <path opacity="0.4" d="M41.732 50.3239H17.1838C9.81931 50.3239 4.90967 46.6417 4.90967 38.0498V20.866C4.90967 12.2742 9.81931 8.59192 17.1838 8.59192H41.732C49.0965 8.59192 54.0061 12.2742 54.0061 20.866V38.0498C54.0061 46.6417 49.0965 50.3239 41.732 50.3239Z" fill="#009688"/>
    <path d="M29.4577 36.8223C33.525 36.8223 36.8222 33.5251 36.8222 29.4578C36.8222 25.3906 33.525 22.0934 29.4577 22.0934C25.3904 22.0934 22.0933 25.3906 22.0933 29.4578C22.0933 33.5251 25.3904 36.8223 29.4577 36.8223Z" fill="#009688"/>
    <path d="M11.0467 26.3893C10.0402 26.3893 9.20557 25.5547 9.20557 24.5482V20.866C9.20557 16.4719 12.7896 12.8878 17.1837 12.8878H20.866C21.8724 12.8878 22.7071 13.7225 22.7071 14.7289C22.7071 15.7354 21.8724 16.57 20.866 16.57H17.1837C14.8271 16.57 12.8878 18.5094 12.8878 20.866V24.5482C12.8878 25.5547 12.0532 26.3893 11.0467 26.3893Z" fill="#009688"/>
    <path d="M47.8689 26.3893C46.8624 26.3893 46.0278 25.5547 46.0278 24.5482V20.866C46.0278 18.5094 44.0885 16.57 41.7318 16.57H38.0496C37.0431 16.57 36.2085 15.7354 36.2085 14.7289C36.2085 13.7225 37.0431 12.8878 38.0496 12.8878H41.7318C46.126 12.8878 49.71 16.4719 49.71 20.866V24.5482C49.71 25.5547 48.8754 26.3893 47.8689 26.3893Z" fill="#009688"/>
    <path d="M20.866 46.0279H17.1837C12.7896 46.0279 9.20557 42.4438 9.20557 38.0497V34.3675C9.20557 33.361 10.0402 32.5264 11.0467 32.5264C12.0532 32.5264 12.8878 33.361 12.8878 34.3675V38.0497C12.8878 40.4063 14.8271 42.3457 17.1837 42.3457H20.866C21.8724 42.3457 22.7071 43.1803 22.7071 44.1868C22.7071 45.1932 21.8724 46.0279 20.866 46.0279Z" fill="#009688"/>
    <path d="M41.7318 46.0279H38.0496C37.0431 46.0279 36.2085 45.1932 36.2085 44.1868C36.2085 43.1803 37.0431 42.3457 38.0496 42.3457H41.7318C44.0885 42.3457 46.0278 40.4063 46.0278 38.0497V34.3675C46.0278 33.361 46.8624 32.5264 47.8689 32.5264C48.8754 32.5264 49.71 33.361 49.71 34.3675V38.0497C49.71 42.4438 46.126 46.0279 41.7318 46.0279Z" fill="#009688"/>
</svg>
