<svg width="26" height="26" viewBox="0 0 26 26" fill="none" xmlns="http://www.w3.org/2000/svg">
    <path d="M13.1556 3.64991C9.68939 3.64991 6.87248 6.46683 6.87248 9.93299V12.9593C6.87248 13.5981 6.60021 14.572 6.27558 15.1165L5.07133 17.1167C4.32783 18.3523 4.84095 19.7241 6.20228 20.1849C10.7156 21.6928 15.585 21.6928 20.0984 20.1849C21.3655 19.766 21.9205 18.2686 21.2293 17.1167L20.0251 15.1165C19.7109 14.572 19.4386 13.5981 19.4386 12.9593V9.93299C19.4386 6.4773 16.6113 3.64991 13.1556 3.64991Z" stroke="white" stroke-width="1.57077" stroke-miterlimit="10" stroke-linecap="round"/>
    <path d="M15.0926 3.95359C14.768 3.85934 14.4329 3.78604 14.0873 3.74415C13.082 3.61849 12.1186 3.69179 11.218 3.95359C11.5217 3.17867 12.2757 2.63414 13.1553 2.63414C14.0349 2.63414 14.7889 3.17867 15.0926 3.95359Z" stroke="white" stroke-width="1.57077" stroke-miterlimit="10" stroke-linecap="round" stroke-linejoin="round"/>
    <path d="M16.297 20.5619C16.297 22.2897 14.8833 23.7034 13.1555 23.7034C12.2968 23.7034 11.5009 23.3474 10.9354 22.7819C10.37 22.2164 10.0139 21.4206 10.0139 20.5619" stroke="white" stroke-width="1.57077" stroke-miterlimit="10"/>
</svg>
