<svg width="97" height="97" viewBox="0 0 97 97" fill="none" xmlns="http://www.w3.org/2000/svg">
    <g clip-path="url(#clip0_335_6547)">
        <path d="M25.7845 19.5415H4.73933C3.07891 19.5415 1.73288 20.8875 1.73288 22.548V31.5673C1.73288 33.2277 3.07891 34.5737 4.73933 34.5737H25.7845C27.4449 34.5737 28.7909 33.2277 28.7909 31.5673V22.548C28.7909 20.8875 27.4449 19.5415 25.7845 19.5415Z" fill="#F8C460"/>
        <path d="M12.2554 30.0641C10.6607 30.0641 9.13132 29.4306 8.00369 28.3029C6.87605 27.1753 6.24255 25.6459 6.24255 24.0512V19.5415H4.73933C3.94197 19.5415 3.17727 19.8583 2.61345 20.4221C2.04963 20.9859 1.73288 21.7506 1.73288 22.548V31.5673C1.73288 32.3647 2.04963 33.1294 2.61345 33.6932C3.17727 34.257 3.94197 34.5737 4.73933 34.5737H25.7845C26.5818 34.5737 27.3465 34.257 27.9103 33.6932C28.4742 33.1294 28.7909 32.3647 28.7909 31.5673V30.0641H12.2554Z" fill="#FAAF42"/>
        <path d="M25.7845 49.6055H4.73933C3.07891 49.6055 1.73288 50.9515 1.73288 52.6119V61.6313C1.73288 63.2917 3.07891 64.6377 4.73933 64.6377H25.7845C27.4449 64.6377 28.7909 63.2917 28.7909 61.6313V52.6119C28.7909 50.9515 27.4449 49.6055 25.7845 49.6055Z" fill="#F8C460"/>
        <path d="M64.8684 49.6055H31.7975C30.1371 49.6055 28.7911 50.9515 28.7911 52.6119V61.6313C28.7911 63.2917 30.1371 64.6377 31.7975 64.6377H64.8684C66.5289 64.6377 67.8749 63.2917 67.8749 61.6313V52.6119C67.8749 50.9515 66.5289 49.6055 64.8684 49.6055Z" fill="#F8C460"/>
        <path d="M64.8684 19.5415H31.7975C30.1371 19.5415 28.7911 20.8875 28.7911 22.548V31.5673C28.7911 33.2277 30.1371 34.5737 31.7975 34.5737H64.8684C66.5289 34.5737 67.8749 33.2277 67.8749 31.5673V22.548C67.8749 20.8875 66.5289 19.5415 64.8684 19.5415Z" fill="#F8C460"/>
        <path d="M39.3136 30.0641C37.7189 30.0641 36.1895 29.4306 35.0619 28.3029C33.9342 27.1753 33.3007 25.6459 33.3007 24.0512V19.5415H31.7975C31.0002 19.5415 30.2355 19.8583 29.6716 20.4221C29.1078 20.9859 28.7911 21.7506 28.7911 22.548V31.5673C28.7911 32.3647 29.1078 33.1294 29.6716 33.6932C30.2355 34.257 31.0002 34.5737 31.7975 34.5737H64.8684C65.6658 34.5737 66.4305 34.257 66.9943 33.6932C67.5581 33.1294 67.8749 32.3647 67.8749 31.5673V30.0641H39.3136Z" fill="#FAAF42"/>
        <path d="M12.2554 60.128C10.6607 60.128 9.13132 59.4945 8.00369 58.3669C6.87605 57.2393 6.24255 55.7099 6.24255 54.1151V49.6055H4.73933C3.94197 49.6055 3.17727 49.9222 2.61345 50.486C2.04963 51.0499 1.73288 51.8146 1.73288 52.6119V61.6313C1.73288 62.4286 2.04963 63.1933 2.61345 63.7571C3.17727 64.321 3.94197 64.6377 4.73933 64.6377H25.7845C26.5818 64.6377 27.3465 64.321 27.9103 63.7571C28.4742 63.1933 28.7909 62.4286 28.7909 61.6313V60.128H12.2554Z" fill="#FAAF42"/>
        <path d="M39.3136 60.128C37.7189 60.128 36.1895 59.4945 35.0619 58.3669C33.9342 57.2393 33.3007 55.7099 33.3007 54.1151V49.6055H31.7975C31.0002 49.6055 30.2355 49.9222 29.6716 50.486C29.1078 51.0499 28.7911 51.8146 28.7911 52.6119V61.6313C28.7911 62.4286 29.1078 63.1933 29.6716 63.7571C30.2355 64.321 31.0002 64.6377 31.7975 64.6377H64.8684C65.6658 64.6377 66.4305 64.321 66.9943 63.7571C67.5581 63.1933 67.8749 62.4286 67.8749 61.6313V60.128H39.3136Z" fill="#FAAF42"/>
        <path d="M91.9264 49.6055H70.8812C69.2208 49.6055 67.8748 50.9515 67.8748 52.6119V61.6313C67.8748 63.2917 69.2208 64.6377 70.8812 64.6377H91.9264C93.5868 64.6377 94.9328 63.2917 94.9328 61.6313V52.6119C94.9328 50.9515 93.5868 49.6055 91.9264 49.6055Z" fill="#F8C460"/>
        <path d="M78.3974 60.128C76.8026 60.128 75.2732 59.4945 74.1456 58.3669C73.018 57.2393 72.3845 55.7099 72.3845 54.1151V49.6055H70.8812C70.0839 49.6055 69.3192 49.9222 68.7554 50.486C68.1915 51.0499 67.8748 51.8146 67.8748 52.6119V61.6313C67.8748 62.4286 68.1915 63.1933 68.7554 63.7571C69.3192 64.321 70.0839 64.6377 70.8812 64.6377H91.9264C92.7237 64.6377 93.4884 64.321 94.0522 63.7571C94.6161 63.1933 94.9328 62.4286 94.9328 61.6313V60.128H78.3974Z" fill="#FAAF42"/>
        <path d="M12.2554 34.5737H4.73933C3.07891 34.5737 1.73288 35.9198 1.73288 37.5802V46.5995C1.73288 48.2599 3.07891 49.606 4.73933 49.606H12.2554C13.9159 49.606 15.2619 48.2599 15.2619 46.5995V37.5802C15.2619 35.9198 13.9159 34.5737 12.2554 34.5737Z" fill="#F8C460"/>
        <path d="M12.2554 45.0963C10.6607 45.0963 9.13132 44.4628 8.00369 43.3352C6.87605 42.2075 6.24255 40.6781 6.24255 39.0834V34.5737H4.73933C3.94197 34.5737 3.17727 34.8905 2.61345 35.4543C2.04963 36.0181 1.73288 36.7828 1.73288 37.5802V46.5995C1.73288 47.3969 2.04963 48.1616 2.61345 48.7254C3.17727 49.2892 3.94197 49.606 4.73933 49.606H12.2554C13.0528 49.606 13.8175 49.2892 14.3813 48.7254C14.9451 48.1616 15.2619 47.3969 15.2619 46.5995V45.0963H12.2554Z" fill="#FAAF42"/>
        <path d="M51.3393 34.5737H18.2684C16.608 34.5737 15.262 35.9198 15.262 37.5802V46.5995C15.262 48.2599 16.608 49.606 18.2684 49.606H51.3393C52.9998 49.606 54.3458 48.2599 54.3458 46.5995V37.5802C54.3458 35.9198 52.9998 34.5737 51.3393 34.5737Z" fill="#F8C460"/>
        <path d="M25.7845 45.0963C24.1898 45.0963 22.6604 44.4628 21.5328 43.3352C20.4051 42.2075 19.7716 40.6781 19.7716 39.0834V34.5737H18.2684C17.4711 34.5737 16.7064 34.8905 16.1425 35.4543C15.5787 36.0181 15.262 36.7828 15.262 37.5802V46.5995C15.262 47.3969 15.5787 48.1616 16.1425 48.7254C16.7064 49.2892 17.4711 49.606 18.2684 49.606H51.3393C52.1367 49.606 52.9014 49.2892 53.4652 48.7254C54.029 48.1616 54.3458 47.3969 54.3458 46.5995V45.0963H25.7845Z" fill="#FAAF42"/>
        <path d="M25.7845 79.6704H4.73933C3.07891 79.6704 1.73288 81.0164 1.73288 82.6769V91.6962C1.73288 93.3566 3.07891 94.7026 4.73933 94.7026H25.7845C27.4449 94.7026 28.7909 93.3566 28.7909 91.6962V82.6769C28.7909 81.0164 27.4449 79.6704 25.7845 79.6704Z" fill="#F8C460"/>
        <path d="M64.8684 79.6704H31.7975C30.1371 79.6704 28.7911 81.0164 28.7911 82.6769V91.6962C28.7911 93.3566 30.1371 94.7026 31.7975 94.7026H64.8684C66.5289 94.7026 67.8749 93.3566 67.8749 91.6962V82.6769C67.8749 81.0164 66.5289 79.6704 64.8684 79.6704Z" fill="#F8C460"/>
        <path d="M91.9264 79.6704H70.8812C69.2208 79.6704 67.8748 81.0164 67.8748 82.6769V91.6962C67.8748 93.3566 69.2208 94.7026 70.8812 94.7026H91.9264C93.5868 94.7026 94.9328 93.3566 94.9328 91.6962V82.6769C94.9328 81.0164 93.5868 79.6704 91.9264 79.6704Z" fill="#F8C460"/>
        <path d="M12.2554 90.193C10.6607 90.193 9.13132 89.5595 8.00369 88.4318C6.87605 87.3042 6.24255 85.7748 6.24255 84.1801V79.6704H4.73933C3.94197 79.6704 3.17727 79.9872 2.61345 80.551C2.04963 81.1148 1.73288 81.8795 1.73288 82.6769V91.6962C1.73288 92.4936 2.04963 93.2583 2.61345 93.8221C3.17727 94.3859 3.94197 94.7026 4.73933 94.7026H25.7845C26.5818 94.7026 27.3465 94.3859 27.9103 93.8221C28.4742 93.2583 28.7909 92.4936 28.7909 91.6962V90.193H12.2554Z" fill="#FAAF42"/>
        <path d="M39.3136 90.193C37.7189 90.193 36.1895 89.5595 35.0619 88.4318C33.9342 87.3042 33.3007 85.7748 33.3007 84.1801V79.6704H31.7975C31.0002 79.6704 30.2355 79.9872 29.6716 80.551C29.1078 81.1148 28.7911 81.8795 28.7911 82.6769V91.6962C28.7911 92.4936 29.1078 93.2583 29.6716 93.8221C30.2355 94.3859 31.0002 94.7026 31.7975 94.7026H64.8684C65.6658 94.7026 66.4305 94.3859 66.9943 93.8221C67.5581 93.2583 67.8749 92.4936 67.8749 91.6962V90.193H39.3136Z" fill="#FAAF42"/>
        <path d="M78.3974 90.193C76.8026 90.193 75.2732 89.5595 74.1456 88.4318C73.018 87.3042 72.3845 85.7748 72.3845 84.1801V79.6704H70.8812C70.0839 79.6704 69.3192 79.9872 68.7554 80.551C68.1915 81.1148 67.8748 81.8795 67.8748 82.6769V91.6962C67.8748 92.4936 68.1915 93.2583 68.7554 93.8221C69.3192 94.3859 70.0839 94.7026 70.8812 94.7026H91.9264C92.7237 94.7026 93.4884 94.3859 94.0522 93.8221C94.6161 93.2583 94.9328 92.4936 94.9328 91.6962V90.193H78.3974Z" fill="#FAAF42"/>
        <path d="M12.2554 64.6382H4.73933C3.07891 64.6382 1.73288 65.9842 1.73288 67.6446V76.664C1.73288 78.3244 3.07891 79.6704 4.73933 79.6704H12.2554C13.9159 79.6704 15.2619 78.3244 15.2619 76.664V67.6446C15.2619 65.9842 13.9159 64.6382 12.2554 64.6382Z" fill="#F8C460"/>
        <path d="M51.3393 64.6382H18.2684C16.608 64.6382 15.262 65.9842 15.262 67.6446V76.664C15.262 78.3244 16.608 79.6704 18.2684 79.6704H51.3393C52.9998 79.6704 54.3458 78.3244 54.3458 76.664V67.6446C54.3458 65.9842 52.9998 64.6382 51.3393 64.6382Z" fill="#F8C460"/>
        <path d="M91.9264 64.6382H84.4103C82.7499 64.6382 81.4039 65.9842 81.4039 67.6446V76.664C81.4039 78.3244 82.7499 79.6704 84.4103 79.6704H91.9264C93.5869 79.6704 94.9329 78.3244 94.9329 76.664V67.6446C94.9329 65.9842 93.5869 64.6382 91.9264 64.6382Z" fill="#F8C460"/>
        <path d="M78.3975 64.6382H57.3524C55.6919 64.6382 54.3459 65.9842 54.3459 67.6446V76.664C54.3459 78.3244 55.6919 79.6704 57.3524 79.6704H78.3975C80.0579 79.6704 81.4039 78.3244 81.4039 76.664V67.6446C81.4039 65.9842 80.0579 64.6382 78.3975 64.6382Z" fill="#F8C460"/>
        <path d="M78.3975 34.5737H57.3524C55.6919 34.5737 54.3459 35.9198 54.3459 37.5802V46.5995C54.3459 48.2599 55.6919 49.606 57.3524 49.606H78.3975C80.0579 49.606 81.4039 48.2599 81.4039 46.5995V37.5802C81.4039 35.9198 80.0579 34.5737 78.3975 34.5737Z" fill="#F8C460"/>
        <path d="M64.8685 45.0963C63.2737 45.0963 61.7443 44.4628 60.6167 43.3352C59.4891 42.2075 58.8556 40.6781 58.8556 39.0834V34.5737H57.3523C56.555 34.5737 55.7903 34.8905 55.2265 35.4543C54.6626 36.0181 54.3459 36.7828 54.3459 37.5802V46.5995C54.3459 47.3969 54.6626 48.1616 55.2265 48.7254C55.7903 49.2892 56.555 49.606 57.3523 49.606H78.3975C79.1948 49.606 79.9595 49.2892 80.5233 48.7254C81.0872 48.1616 81.4039 47.3969 81.4039 46.5995V45.0963H64.8685Z" fill="#FAAF42"/>
        <path d="M12.2554 75.1607C10.6607 75.1607 9.1313 74.5272 8.00367 73.3996C6.87603 72.272 6.24253 70.7426 6.24253 69.1479V64.6382H4.73931C3.94195 64.6382 3.17725 64.9549 2.61343 65.5187C2.04961 66.0826 1.73286 66.8473 1.73286 67.6446V76.664C1.73286 77.4613 2.04961 78.226 2.61343 78.7899C3.17725 79.3537 3.94195 79.6704 4.73931 79.6704H12.2554C13.0528 79.6704 13.8175 79.3537 14.3813 78.7899C14.9451 78.226 15.2619 77.4613 15.2619 76.664V75.1607H12.2554Z" fill="#FAAF42"/>
        <path d="M91.9264 75.1607C90.3317 75.1607 88.8023 74.5272 87.6747 73.3996C86.547 72.272 85.9135 70.7426 85.9135 69.1479V64.6382H84.4103C83.6129 64.6382 82.8482 64.9549 82.2844 65.5187C81.7206 66.0826 81.4039 66.8473 81.4039 67.6446V76.664C81.4039 77.4613 81.7206 78.226 82.2844 78.7899C82.8482 79.3537 83.6129 79.6704 84.4103 79.6704H91.9264C92.7238 79.6704 93.4885 79.3537 94.0523 78.7899C94.6161 78.226 94.9329 77.4613 94.9329 76.664V75.1607H91.9264Z" fill="#FAAF42"/>
        <path d="M25.7845 75.1607C24.1898 75.1607 22.6604 74.5272 21.5328 73.3996C20.4051 72.272 19.7716 70.7426 19.7716 69.1479V64.6382H18.2684C17.471 64.6382 16.7063 64.9549 16.1425 65.5187C15.5787 66.0826 15.262 66.8473 15.262 67.6446V76.664C15.262 77.4613 15.5787 78.226 16.1425 78.7899C16.7063 79.3537 17.471 79.6704 18.2684 79.6704H51.3393C52.1367 79.6704 52.9014 79.3537 53.4652 78.7899C54.029 78.226 54.3458 77.4613 54.3458 76.664V75.1607H25.7845Z" fill="#FAAF42"/>
        <path d="M64.8685 75.1607C63.2737 75.1607 61.7443 74.5272 60.6167 73.3996C59.4891 72.272 58.8556 70.7426 58.8556 69.1479V64.6382H57.3523C56.555 64.6382 55.7903 64.9549 55.2265 65.5187C54.6626 66.0826 54.3459 66.8473 54.3459 67.6446V76.664C54.3459 77.4613 54.6626 78.226 55.2265 78.7899C55.7903 79.3537 56.555 79.6704 57.3523 79.6704H78.3975C79.1948 79.6704 79.9595 79.3537 80.5233 78.7899C81.0872 78.226 81.4039 77.4613 81.4039 76.664V75.1607H64.8685Z" fill="#FAAF42"/>
        <path d="M80.7455 41.7456L78.5688 43.9223L72.0403 37.3923L74.8589 34.5737H57.3523C56.555 34.5737 55.7903 34.8905 55.2265 35.4543C54.6626 36.0181 54.3459 36.7828 54.3459 37.5802V46.5995C54.3459 47.3969 54.6626 48.1616 55.2265 48.7254C55.7903 49.2892 56.555 49.606 57.3523 49.606H59.5305C59.996 49.3363 60.4245 49.0074 60.8052 48.6274L66.5987 42.8415C66.8873 42.5529 67.2788 42.3907 67.687 42.3907C68.0952 42.3907 68.4867 42.5529 68.7753 42.8415L73.1347 47.1933C73.4229 47.4822 73.5848 47.8736 73.5848 48.2816C73.5848 48.6897 73.4229 49.0811 73.1347 49.37C73.0724 49.4454 73.018 49.527 72.9723 49.6135H78.3975C79.1948 49.6135 79.9595 49.2967 80.5233 48.7329C81.0872 48.1691 81.4039 47.4044 81.4039 46.607V42.404L80.7455 41.7456Z" fill="#FAAF42"/>
        <path d="M64.8682 19.5415H37.9259L45.0466 34.5737H64.8682C65.6655 34.5737 66.4302 34.257 66.994 33.6932C67.5579 33.1294 67.8746 32.3647 67.8746 31.5673V22.548C67.8746 21.7506 67.5579 20.9859 66.994 20.4221C66.4302 19.8583 65.6655 19.5415 64.8682 19.5415Z" fill="#FAAF42"/>
        <path d="M80.4253 26.0048L62.3129 44.1171C61.6146 44.8141 60.7591 45.3333 59.8185 45.631C58.8778 45.9287 57.8794 45.9962 56.9072 45.8278C55.9351 45.6595 55.0175 45.2602 54.2317 44.6635C53.446 44.0668 52.8149 43.2902 52.3916 42.3989L38.4026 12.8636C37.8603 11.7158 37.6856 10.4285 37.9024 9.17761C38.1193 7.92675 38.7171 6.77337 39.6142 5.87512L42.1848 3.30461C43.084 2.40898 44.2379 1.81282 45.4887 1.59758C46.7395 1.38234 48.0263 1.55851 49.1732 2.10203L78.7071 16.0835C79.5983 16.5068 80.3749 17.1378 80.9716 17.9236C81.5683 18.7094 81.9676 19.6269 82.136 20.5991C82.3043 21.5713 82.2368 22.5697 81.9391 23.5103C81.6415 24.451 81.1223 25.3065 80.4253 26.0048Z" fill="#E6E6E6"/>
        <path d="M51.3395 34.5737H45.047L50.8886 46.9092C51.3186 47.8245 51.9688 48.6188 52.7811 49.2211C53.2533 48.9649 53.6478 48.5863 53.9232 48.125C54.1985 47.6637 54.3446 47.1368 54.346 46.5995V37.5802C54.346 36.7828 54.0292 36.0181 53.4654 35.4543C52.9016 34.8905 52.1369 34.5737 51.3395 34.5737Z" fill="#FAAF42"/>
        <path d="M91.3808 52.3804L88.6059 49.6055H72.9724C72.7696 49.896 72.6749 50.2483 72.7045 50.6014C72.7342 50.9544 72.8863 51.286 73.1347 51.5386L82.9222 61.3306C83.514 61.9208 84.2197 62.3844 84.9964 62.6933C85.773 63.0021 86.6044 63.1498 87.4399 63.1273C88.2754 63.1048 89.0976 62.9126 89.8565 62.5624C90.6154 62.2122 91.2951 61.7112 91.8544 61.0901C92.8935 59.8485 93.4226 58.2586 93.3347 56.6419C93.2468 55.0252 92.5485 53.5021 91.3808 52.3804Z" fill="#FAAF42"/>
        <path d="M57.3522 10.8C57.1293 10.7983 56.9095 10.7469 56.7088 10.6497L52.9478 8.86841C52.7533 8.79494 52.5762 8.68194 52.4276 8.53655C52.2791 8.39116 52.1623 8.21654 52.0846 8.02372C52.007 7.8309 51.9702 7.62408 51.9765 7.41631C51.9829 7.20854 52.0323 7.00434 52.1215 6.81662C52.2108 6.6289 52.338 6.46174 52.4952 6.32569C52.6523 6.18964 52.836 6.08766 53.0346 6.0262C53.2332 5.96474 53.4423 5.94513 53.6489 5.9686C53.8554 5.99208 54.0548 6.05814 54.2345 6.16261L57.9926 7.94393C58.2977 8.09166 58.5439 8.3382 58.6913 8.64351C58.8386 8.94882 58.8785 9.29498 58.8043 9.62577C58.7301 9.95657 58.5463 10.2526 58.2827 10.4658C58.0191 10.6789 57.6912 10.7967 57.3522 10.8Z" fill="white"/>
        <path d="M81.9287 19.9931L69.703 32.2143C68.3405 33.5772 66.6705 34.5927 64.8335 35.1752C62.9966 35.7578 61.0466 35.8903 59.1477 35.5618C57.2488 35.2332 55.4567 34.453 53.9223 33.2871C52.3879 32.1212 51.1562 30.6036 50.3309 28.8621L39.9061 6.85191C39.7667 6.55747 39.6511 6.25234 39.5603 5.93945C38.6839 6.83785 38.1033 7.98285 37.8964 9.22075C37.6895 10.4587 37.8662 11.7302 38.4029 12.8648L52.3919 42.4001C52.8151 43.2914 53.4462 44.068 54.2319 44.6647C55.0177 45.2613 55.9353 45.6607 56.9075 45.829C57.8796 45.9974 58.878 45.9299 59.8187 45.6322C60.7594 45.3345 61.6148 44.8153 62.3131 44.1183L80.4255 26.006C81.2079 25.2278 81.7655 24.2527 82.0394 23.1836C82.3133 22.1146 82.2932 20.9915 81.9813 19.933C81.9633 19.948 81.9482 19.9705 81.9287 19.9931Z" fill="#CECECE"/>
        <path d="M80.0718 39.4126L75.72 43.7644L64.8381 32.8826C64.5522 32.5969 64.3254 32.2577 64.1706 31.8844C64.0158 31.511 63.9362 31.1108 63.9362 30.7066C63.9362 30.3025 64.0158 29.9023 64.1706 29.5289C64.3254 29.1556 64.5522 28.8164 64.8381 28.5307C65.1239 28.2437 65.4636 28.0159 65.8376 27.8604C66.2117 27.705 66.6128 27.625 67.0178 27.625C67.4229 27.625 67.8239 27.705 68.198 27.8604C68.572 28.0159 68.9117 28.2437 69.1975 28.5307L80.0718 39.4126Z" fill="#7A838B"/>
        <path d="M93.1289 56.8214C91.9735 57.9739 90.4082 58.6211 88.7763 58.6211C87.1444 58.6211 85.5791 57.9739 84.4237 56.8214L73.5419 45.9395L82.2471 37.2344L93.1289 48.1177C94.2809 49.273 94.9279 50.838 94.9279 52.4695C94.9279 54.1011 94.2809 55.6661 93.1289 56.8214Z" fill="#E6E6E6"/>
        <path d="M93.1289 52.3121C91.9735 53.4645 90.4082 54.1118 88.7763 54.1118C87.1444 54.1118 85.5791 53.4645 84.4237 52.3121L75.7967 43.6851L73.5419 45.9399L84.4252 56.8217C85.4258 57.8222 86.7407 58.4472 88.1483 58.5914C89.5559 58.7357 90.9702 58.3904 92.1529 57.6136C93.3356 56.8369 94.2145 55.6763 94.6415 54.3273C95.0684 52.9783 95.0173 51.5233 94.4968 50.2075C94.191 50.996 93.7253 51.7125 93.1289 52.3121Z" fill="#CECECE"/>
        <path d="M73.4527 41.5142L77.8054 37.1614L80.0599 39.4159L75.7072 43.7687L73.4527 41.5142Z" fill="#5D6972"/>
        <path d="M94.9328 60.1283C94.5341 60.1283 94.1518 60.2867 93.8699 60.5686C93.588 60.8505 93.4296 61.2329 93.4296 61.6316C93.4296 62.0302 93.2712 62.4126 92.9893 62.6945C92.7074 62.9764 92.3251 63.1348 91.9264 63.1348H70.8812C70.4826 63.1348 70.1002 62.9764 69.8183 62.6945C69.5364 62.4126 69.378 62.0302 69.378 61.6316V52.6122C69.378 52.2135 69.5364 51.8312 69.8183 51.5493C70.1002 51.2674 70.4826 51.109 70.8812 51.109C71.2799 51.109 71.6623 50.9506 71.9442 50.6687C72.2261 50.3868 72.3845 50.0045 72.3845 49.6058C72.3845 49.2071 72.2261 48.8247 71.9442 48.5428C71.6623 48.2609 71.2799 48.1026 70.8812 48.1026C69.7683 48.1065 68.6966 48.5244 67.8748 49.2751C67.053 48.5244 65.9813 48.1065 64.8684 48.1026H18.2684C17.8697 48.1026 17.4874 47.9442 17.2055 47.6623C16.9236 47.3804 16.7652 46.998 16.7652 46.5993V37.58C16.7652 37.1813 16.9236 36.799 17.2055 36.5171C17.4874 36.2351 17.8697 36.0768 18.2684 36.0768H43.8232C44.2219 36.0768 44.6043 35.9184 44.8862 35.6365C45.1681 35.3546 45.3264 34.9722 45.3264 34.5735C45.3264 34.1749 45.1681 33.7925 44.8862 33.5106C44.6043 33.2287 44.2219 33.0703 43.8232 33.0703H31.7974C31.3988 33.0703 31.0164 32.9119 30.7345 32.63C30.4526 32.3481 30.2942 31.9658 30.2942 31.5671V22.5478C30.2942 22.1491 30.4526 21.7667 30.7345 21.4848C31.0164 21.2029 31.3988 21.0445 31.7974 21.0445H34.8039C35.2026 21.0445 35.5849 20.8862 35.8668 20.6042C36.1487 20.3223 36.3071 19.94 36.3071 19.5413C36.3071 19.1426 36.1487 18.7603 35.8668 18.4784C35.5849 18.1965 35.2026 18.0381 34.8039 18.0381H31.7974C30.6845 18.042 29.6128 18.46 28.791 19.2106C27.9692 18.46 26.8975 18.042 25.7845 18.0381H4.73941C3.54338 18.0381 2.39632 18.5132 1.5506 19.3589C0.704869 20.2047 0.229744 21.3517 0.229744 22.5478L0.229744 31.5671C0.233658 32.6801 0.651621 33.7518 1.40226 34.5735C0.651621 35.3953 0.233658 36.467 0.229744 37.58L0.229744 46.5993C0.233658 47.7123 0.651621 48.784 1.40226 49.6058C0.651621 50.4275 0.233658 51.4992 0.229744 52.6122L0.229744 61.6316C0.233658 62.7446 0.651621 63.8163 1.40226 64.638C0.651621 65.4598 0.233658 66.5315 0.229744 67.6445L0.229744 76.6638C0.233658 77.7768 0.651621 78.8485 1.40226 79.6702C0.651621 80.492 0.233658 81.5637 0.229744 82.6767L0.229744 91.696C0.229744 92.8921 0.704869 94.0391 1.5506 94.8849C2.39632 95.7306 3.54338 96.2057 4.73941 96.2057H25.7845C26.8975 96.2018 27.9692 95.7838 28.791 95.0332C29.6128 95.7838 30.6845 96.2018 31.7974 96.2057H64.8684C65.9813 96.2018 67.053 95.7838 67.8748 95.0332C68.6966 95.7838 69.7683 96.2018 70.8812 96.2057H91.9264C93.1224 96.2057 94.2695 95.7306 95.1152 94.8849C95.9609 94.0391 96.436 92.8921 96.436 91.696V82.6767C96.4321 81.5637 96.0142 80.492 95.2635 79.6702C96.0142 78.8485 96.4321 77.7768 96.436 76.6638V67.6445C96.4321 66.5315 96.0142 65.4598 95.2635 64.638C96.0142 63.8163 96.4321 62.7446 96.436 61.6316C96.436 61.2329 96.2777 60.8505 95.9958 60.5686C95.7139 60.2867 95.3315 60.1283 94.9328 60.1283ZM91.9264 66.1412C92.3251 66.1412 92.7074 66.2996 92.9893 66.5815C93.2712 66.8634 93.4296 67.2458 93.4296 67.6445V76.6638C93.4296 77.0625 93.2712 77.4448 92.9893 77.7267C92.7074 78.0087 92.3251 78.167 91.9264 78.167H84.4103C84.0116 78.167 83.6292 78.0087 83.3473 77.7267C83.0654 77.4448 82.907 77.0625 82.907 76.6638V67.6445C82.907 67.2458 83.0654 66.8634 83.3473 66.5815C83.6292 66.2996 84.0116 66.1412 84.4103 66.1412H91.9264ZM78.3974 66.1412C78.796 66.1412 79.1784 66.2996 79.4603 66.5815C79.7422 66.8634 79.9006 67.2458 79.9006 67.6445V76.6638C79.9006 77.0625 79.7422 77.4448 79.4603 77.7267C79.1784 78.0087 78.796 78.167 78.3974 78.167H57.3522C56.9536 78.167 56.5712 78.0087 56.2893 77.7267C56.0074 77.4448 55.849 77.0625 55.849 76.6638V67.6445C55.849 67.2458 56.0074 66.8634 56.2893 66.5815C56.5712 66.2996 56.9536 66.1412 57.3522 66.1412H78.3974ZM64.8684 51.109C65.267 51.109 65.6494 51.2674 65.9313 51.5493C66.2132 51.8312 66.3716 52.2135 66.3716 52.6122V61.6316C66.3716 62.0302 66.2132 62.4126 65.9313 62.6945C65.6494 62.9764 65.267 63.1348 64.8684 63.1348H43.8232C43.4245 63.1348 43.0422 63.2932 42.7603 63.5751C42.4784 63.857 42.32 64.2393 42.32 64.638C42.32 65.0367 42.4784 65.419 42.7603 65.701C43.0422 65.9829 43.4245 66.1412 43.8232 66.1412H51.3393C51.738 66.1412 52.1204 66.2996 52.4023 66.5815C52.6842 66.8634 52.8426 67.2458 52.8426 67.6445V76.6638C52.8426 77.0625 52.6842 77.4448 52.4023 77.7267C52.1204 78.0087 51.738 78.167 51.3393 78.167H18.2684C17.8697 78.167 17.4874 78.0087 17.2055 77.7267C16.9236 77.4448 16.7652 77.0625 16.7652 76.6638V67.6445C16.7652 67.2458 16.9236 66.8634 17.2055 66.5815C17.4874 66.2996 17.8697 66.1412 18.2684 66.1412H37.8103C38.209 66.1412 38.5914 65.9829 38.8733 65.701C39.1552 65.419 39.3136 65.0367 39.3136 64.638C39.3136 64.2393 39.1552 63.857 38.8733 63.5751C38.5914 63.2932 38.209 63.1348 37.8103 63.1348H31.7974C31.3988 63.1348 31.0164 62.9764 30.7345 62.6945C30.4526 62.4126 30.2942 62.0302 30.2942 61.6316V52.6122C30.2942 52.2135 30.4526 51.8312 30.7345 51.5493C31.0164 51.2674 31.3988 51.109 31.7974 51.109H64.8684ZM3.23619 76.6638V67.6445C3.23619 67.2458 3.39457 66.8634 3.67648 66.5815C3.95838 66.2996 4.34073 66.1412 4.73941 66.1412H12.2555C12.6542 66.1412 13.0366 66.2996 13.3185 66.5815C13.6004 66.8634 13.7588 67.2458 13.7588 67.6445V76.6638C13.7588 77.0625 13.6004 77.4448 13.3185 77.7267C13.0366 78.0087 12.6542 78.167 12.2555 78.167H4.73941C4.34073 78.167 3.95838 78.0087 3.67648 77.7267C3.39457 77.4448 3.23619 77.0625 3.23619 76.6638ZM25.7845 51.109C26.1832 51.109 26.5656 51.2674 26.8475 51.5493C27.1294 51.8312 27.2878 52.2135 27.2878 52.6122V61.6316C27.2878 62.0302 27.1294 62.4126 26.8475 62.6945C26.5656 62.9764 26.1832 63.1348 25.7845 63.1348H4.73941C4.34073 63.1348 3.95838 62.9764 3.67648 62.6945C3.39457 62.4126 3.23619 62.0302 3.23619 61.6316V52.6122C3.23619 52.2135 3.39457 51.8312 3.67648 51.5493C3.95838 51.2674 4.34073 51.109 4.73941 51.109H25.7845ZM3.23619 46.5993V37.58C3.23619 37.1813 3.39457 36.799 3.67648 36.5171C3.95838 36.2351 4.34073 36.0768 4.73941 36.0768H12.2555C12.6542 36.0768 13.0366 36.2351 13.3185 36.5171C13.6004 36.799 13.7588 37.1813 13.7588 37.58V46.5993C13.7588 46.998 13.6004 47.3804 13.3185 47.6623C13.0366 47.9442 12.6542 48.1026 12.2555 48.1026H4.73941C4.34073 48.1026 3.95838 47.9442 3.67648 47.6623C3.39457 47.3804 3.23619 46.998 3.23619 46.5993ZM3.23619 22.5478C3.23619 22.1491 3.39457 21.7667 3.67648 21.4848C3.95838 21.2029 4.34073 21.0445 4.73941 21.0445H25.7845C26.1832 21.0445 26.5656 21.2029 26.8475 21.4848C27.1294 21.7667 27.2878 22.1491 27.2878 22.5478V31.5671C27.2878 31.9658 27.1294 32.3481 26.8475 32.63C26.5656 32.9119 26.1832 33.0703 25.7845 33.0703H4.73941C4.34073 33.0703 3.95838 32.9119 3.67648 32.63C3.39457 32.3481 3.23619 31.9658 3.23619 31.5671V22.5478ZM25.7845 93.1993H4.73941C4.34073 93.1993 3.95838 93.0409 3.67648 92.759C3.39457 92.4771 3.23619 92.0947 3.23619 91.696V82.6767C3.23619 82.278 3.39457 81.8957 3.67648 81.6138C3.95838 81.3318 4.34073 81.1735 4.73941 81.1735H25.7845C26.1832 81.1735 26.5656 81.3318 26.8475 81.6138C27.1294 81.8957 27.2878 82.278 27.2878 82.6767V91.696C27.2878 92.0947 27.1294 92.4771 26.8475 92.759C26.5656 93.0409 26.1832 93.1993 25.7845 93.1993ZM64.8684 93.1993H31.7974C31.3988 93.1993 31.0164 93.0409 30.7345 92.759C30.4526 92.4771 30.2942 92.0947 30.2942 91.696V82.6767C30.2942 82.278 30.4526 81.8957 30.7345 81.6138C31.0164 81.3318 31.3988 81.1735 31.7974 81.1735H64.8684C65.267 81.1735 65.6494 81.3318 65.9313 81.6138C66.2132 81.8957 66.3716 82.278 66.3716 82.6767V91.696C66.3716 92.0947 66.2132 92.4771 65.9313 92.759C65.6494 93.0409 65.267 93.1993 64.8684 93.1993ZM93.4296 91.696C93.4296 92.0947 93.2712 92.4771 92.9893 92.759C92.7074 93.0409 92.3251 93.1993 91.9264 93.1993H70.8812C70.4826 93.1993 70.1002 93.0409 69.8183 92.759C69.5364 92.4771 69.378 92.0947 69.378 91.696V82.6767C69.378 82.278 69.5364 81.8957 69.8183 81.6138C70.1002 81.3318 70.4826 81.1735 70.8812 81.1735H91.9264C92.3251 81.1735 92.7074 81.3318 92.9893 81.6138C93.2712 81.8957 93.4296 82.278 93.4296 82.6767V91.696Z" fill="black"/>
        <path d="M51.0384 43.0429C51.5577 44.1567 52.3404 45.1274 53.3189 45.8709C54.2974 46.6145 55.4422 47.1086 56.6545 47.3106C57.0982 47.3881 57.5478 47.4273 57.9983 47.4278C58.997 47.4266 59.9855 47.2273 60.9066 46.8416C61.8278 46.4558 62.6633 45.8912 63.3648 45.1805L69.1838 39.3615L73.5883 43.7645L72.4744 44.8783C72.1926 45.1602 72.0343 45.5425 72.0343 45.9411C72.0343 46.3397 72.1926 46.722 72.4744 47.0039L83.3577 57.8857C84.7946 59.3226 86.7433 60.1298 88.7753 60.1298C90.8073 60.1298 92.7561 59.3226 94.193 57.8857C95.6298 56.4489 96.437 54.5001 96.437 52.4681C96.437 50.4361 95.6298 48.4873 94.193 47.0505L83.3111 36.1687C83.0292 35.8869 82.6469 35.7285 82.2483 35.7285C81.8497 35.7285 81.4675 35.8869 81.1856 36.1687L80.0717 37.2826L75.6687 32.8781L81.4877 27.0576C82.3516 26.1889 82.9948 25.1257 83.3632 23.9573C83.7316 22.7888 83.8147 21.549 83.6053 20.3418C83.396 19.1347 82.9004 17.9953 82.16 17.0191C81.4197 16.0429 80.4561 15.2583 79.3501 14.7312L67.0147 8.88516C66.8357 8.79539 66.6405 8.7423 66.4407 8.72898C66.2409 8.71567 66.0405 8.74241 65.8512 8.80763C65.6618 8.87286 65.4875 8.97525 65.3383 9.1088C65.189 9.24235 65.068 9.40437 64.9823 9.58534C64.8966 9.7663 64.8479 9.96258 64.839 10.1626C64.8302 10.3627 64.8615 10.5625 64.9309 10.7503C65.0004 10.9381 65.1066 11.1101 65.2435 11.2563C65.3804 11.4025 65.5451 11.5198 65.7279 11.6015L78.0634 17.4445C78.7358 17.7649 79.3216 18.2419 79.7717 18.8354C80.2218 19.4288 80.5231 20.1216 80.6503 20.8555C80.7775 21.5894 80.7269 22.3431 80.5028 23.0535C80.2787 23.7638 79.8875 24.4101 79.3622 24.9381L73.5432 30.7571L70.2541 27.468C69.3812 26.6353 68.2211 26.1707 67.0147 26.1707C65.8082 26.1707 64.6481 26.6353 63.7752 27.468C63.3497 27.8935 63.0121 28.3986 62.7818 28.9546C62.5514 29.5105 62.4329 30.1064 62.4329 30.7082C62.4329 31.31 62.5514 31.9059 62.7818 32.4618C63.0121 33.0178 63.3497 33.5229 63.7752 33.9484L67.0643 37.2375L61.2453 43.0549C60.7173 43.5803 60.071 43.9714 59.3607 44.1956C58.6503 44.4197 57.8966 44.4703 57.1627 44.3431C56.4288 44.2159 55.7361 43.9146 55.1426 43.4645C54.5491 43.0144 54.0722 42.4286 53.7517 41.7561L39.7642 12.2208C39.3548 11.3534 39.223 10.3807 39.3868 9.43562C39.5507 8.49051 40.0022 7.61898 40.6797 6.93999L43.2502 4.36948C43.9286 3.69193 44.7998 3.24059 45.7446 3.07725C46.6894 2.91391 47.6615 3.04656 48.528 3.45702L59.715 8.75588C59.894 8.84565 60.0891 8.89875 60.289 8.91206C60.4888 8.92538 60.6892 8.89863 60.8785 8.83341C61.0679 8.76819 61.2422 8.66579 61.3914 8.53224C61.5406 8.39869 61.6617 8.23668 61.7474 8.05571C61.8331 7.87474 61.8818 7.67847 61.8907 7.47842C61.8995 7.27837 61.8682 7.07857 61.7988 6.89075C61.7293 6.70294 61.6231 6.5309 61.4862 6.38473C61.3493 6.23856 61.1846 6.1212 61.0018 6.03956L49.8148 0.737691C48.3874 0.0624895 46.7863 -0.155475 45.2303 0.113582C43.6744 0.38264 42.2394 1.12559 41.1216 2.24091L38.5511 4.80992C37.4358 5.92772 36.6929 7.36264 36.4238 8.9186C36.1547 10.4746 36.3727 12.0757 37.0479 13.5031L51.0384 43.0429ZM92.0764 49.1806C92.5496 49.6029 92.9316 50.1173 93.199 50.6924C93.4665 51.2675 93.6137 51.8911 93.6317 52.5251C93.6497 53.159 93.5381 53.79 93.3037 54.3793C93.0693 54.9687 92.7171 55.504 92.2687 55.9524C91.8202 56.4009 91.2849 56.7531 90.6956 56.9875C90.1063 57.2218 89.4753 57.3334 88.8413 57.3154C88.2073 57.2974 87.5837 57.1502 87.0086 56.8828C86.4336 56.6154 85.9191 56.2334 85.4968 55.7602L75.6778 45.9411L82.2574 39.3615L92.0764 49.1806ZM65.4393 30.7075C65.4389 30.3959 65.531 30.0912 65.7039 29.832C65.8768 29.5728 66.1228 29.3708 66.4106 29.2515C66.6984 29.1322 67.0152 29.1011 67.3208 29.1619C67.6263 29.2228 67.9069 29.3731 68.1271 29.5936L77.9461 39.4126L75.7198 41.6389L65.9008 31.8198C65.7541 31.6742 65.6377 31.5009 65.5585 31.3099C65.4793 31.119 65.4388 30.9142 65.4393 30.7075Z" fill="black"/>
        <path d="M25.7844 24.0514H22.778C22.3793 24.0514 21.9969 23.893 21.715 23.6111C21.4331 23.3292 21.2747 22.9468 21.2747 22.5481C21.2747 22.1495 21.4331 21.7671 21.715 21.4852C21.9969 21.2033 22.3793 21.0449 22.778 21.0449H25.7844C26.1831 21.0449 26.5654 21.2033 26.8473 21.4852C27.1293 21.7671 27.2876 22.1495 27.2876 22.5481C27.2876 22.9468 27.1293 23.3292 26.8473 23.6111C26.5654 23.893 26.1831 24.0514 25.7844 24.0514Z" fill="white"/>
        <path d="M58.8556 54.1158H55.8491C55.4504 54.1158 55.0681 53.9574 54.7862 53.6755C54.5043 53.3936 54.3459 53.0113 54.3459 52.6126C54.3459 52.2139 54.5043 51.8316 54.7862 51.5497C55.0681 51.2677 55.4504 51.1094 55.8491 51.1094H58.8556C59.2543 51.1094 59.6366 51.2677 59.9185 51.5497C60.2004 51.8316 60.3588 52.2139 60.3588 52.6126C60.3588 53.0113 60.2004 53.3936 59.9185 53.6755C59.6366 53.9574 59.2543 54.1158 58.8556 54.1158Z" fill="white"/>
    </g>
    <defs>
        <clipPath id="clip0_335_6547">
            <rect width="96.2063" height="96.2063" fill="white" transform="translate(0.230022)"/>
        </clipPath>
    </defs>
</svg>
