<svg width="20" height="21" viewBox="0 0 20 21" fill="none" xmlns="http://www.w3.org/2000/svg">
    <path fill-rule="evenodd" clip-rule="evenodd" d="M11.8548 1.54569C10.8856 0.727609 9.46772 0.72761 8.49849 1.54569L7.61579 2.29072C7.20384 2.63843 6.69405 2.8496 6.15689 2.89503L5.00591 2.99236C3.74209 3.09924 2.7395 4.10183 2.63262 5.36565L2.53529 6.51663C2.48986 7.0538 2.27868 7.56358 1.93098 7.97555L1.18595 8.85823C0.367868 9.82746 0.367869 11.2453 1.18595 12.2146L1.93098 13.0972C2.27868 13.5092 2.48986 14.019 2.53529 14.5562L2.63262 15.7072C2.7395 16.971 3.74209 17.9736 5.00591 18.0804L6.15689 18.1777C6.69405 18.2233 7.20384 18.4344 7.6158 18.7821L8.49849 19.5271C9.46772 20.3451 10.8856 20.3451 11.8548 19.5271L12.7375 18.7821C13.1495 18.4344 13.6593 18.2233 14.1964 18.1777L15.3475 18.0804C16.6113 17.9736 17.6139 16.971 17.7207 15.7072L17.818 14.5562C17.8635 14.019 18.0747 13.5092 18.4224 13.0972L19.1674 12.2146C19.9854 11.2453 19.9854 9.82746 19.1674 8.85823L18.4224 7.97553C18.0747 7.56358 17.8635 7.0538 17.818 6.51663L17.7207 5.36565C17.6139 4.10183 16.6113 3.09924 15.3475 2.99236L14.1964 2.89503C13.6593 2.8496 13.1495 2.63843 12.7375 2.29072L11.8548 1.54569ZM14.9078 8.76255C15.365 8.30532 15.365 7.56401 14.9078 7.10678C14.4506 6.64954 13.7092 6.64954 13.252 7.10678L8.87632 11.4825L7.10242 9.70857C6.64519 9.25133 5.90388 9.25133 5.44665 9.70857C4.98941 10.1658 4.98941 10.9071 5.44665 11.3643L8.04844 13.9661C8.50567 14.4233 9.24698 14.4233 9.70421 13.9661L14.9078 8.76255Z" fill="#3ED37A"/>
</svg>
