<svg width="15" height="15" viewBox="0 0 15 15" fill="none" xmlns="http://www.w3.org/2000/svg">
  <path d="M7.06226 1.45837H5.85392C2.83309 1.45837 1.62476 2.66671 1.62476 5.68754V9.31254C1.62476 12.3334 2.83309 13.5417 5.85392 13.5417H9.47892C12.4998 13.5417 13.7081 12.3334 13.7081 9.31254V8.10421" stroke="white" stroke-width="0.90625" stroke-linecap="round" stroke-linejoin="round"/>
  <path d="M10.1074 2.07455L5.34655 6.83539C5.1653 7.01664 4.98405 7.37309 4.9478 7.63289L4.68801 9.45143C4.59134 10.11 5.05655 10.5691 5.71509 10.4785L7.53364 10.2187C7.78739 10.1825 8.14384 10.0012 8.33114 9.81997L13.092 5.05914C13.9136 4.23747 14.3003 3.28289 13.092 2.07455C11.8836 0.86622 10.9291 1.25289 10.1074 2.07455Z" stroke="white" stroke-width="0.90625" stroke-miterlimit="10" stroke-linecap="round" stroke-linejoin="round"/>
  <path d="M9.42456 2.75732C9.82935 4.20128 10.9591 5.33107 12.4091 5.74191" stroke="white" stroke-width="0.90625" stroke-miterlimit="10" stroke-linecap="round" stroke-linejoin="round"/>
</svg>
