<svg width="26" height="26" viewBox="0 0 26 26" fill="none" xmlns="http://www.w3.org/2000/svg">
    <path d="M18.2084 4.14583H7.79171C4.66671 4.14583 2.58337 5.70833 2.58337 9.35417V16.6458C2.58337 20.2917 4.66671 21.8542 7.79171 21.8542H18.2084C21.3334 21.8542 23.4167 20.2917 23.4167 16.6458V9.35417C23.4167 5.70833 21.3334 4.14583 18.2084 4.14583ZM18.698 10.4896L15.4375 13.0938C14.75 13.6458 13.875 13.9167 13 13.9167C12.125 13.9167 11.2396 13.6458 10.5625 13.0938L7.30212 10.4896C6.96879 10.2188 6.91671 9.71875 7.17712 9.38542C7.44796 9.05208 7.93754 8.98958 8.27087 9.26042L11.5313 11.8646C12.323 12.5 13.6667 12.5 14.4584 11.8646L17.7188 9.26042C18.0521 8.98958 18.5521 9.04167 18.8125 9.38542C19.0834 9.71875 19.0313 10.2188 18.698 10.4896Z" fill="#262527"/>
</svg>
