<svg width="23" height="23" viewBox="0 0 23 23" fill="none" xmlns="http://www.w3.org/2000/svg">
    <path d="M9.48834 13.148C10.9902 13.148 12.2076 14.3654 12.2076 15.8673C12.2076 17.3691 10.9902 18.5866 9.48834 18.5866C7.98651 18.5866 6.76904 17.3691 6.76904 15.8673C6.76904 14.3654 7.98651 13.148 9.48834 13.148Z" stroke="white" stroke-width="1.35965"/>
    <path d="M14.0204 4.08363C12.5186 4.08363 11.3011 5.3011 11.3011 6.80293C11.3011 8.30475 12.5186 9.52222 14.0204 9.52222C15.5223 9.52222 16.7397 8.30475 16.7397 6.80293C16.7397 5.3011 15.5223 4.08363 14.0204 4.08363Z" stroke="white" stroke-width="1.35965"/>
    <path d="M10.848 6.80296L6.31588 6.80295M3.59652 6.80296L2.69006 6.80296" stroke="white" stroke-width="1.35965" stroke-linecap="round"/>
    <path d="M12.6608 15.8673L17.1929 15.8673M19.9123 15.8673L20.8187 15.8673" stroke="white" stroke-width="1.35965" stroke-linecap="round"/>
    <path d="M2.69006 15.8673L6.31579 15.8673" stroke="white" stroke-width="1.35965" stroke-linecap="round"/>
    <path d="M20.8187 6.80295L17.193 6.80295" stroke="white" stroke-width="1.35965" stroke-linecap="round"/>
</svg>
