<svg width="72" height="72" viewBox="0 0 72 72" fill="none" xmlns="http://www.w3.org/2000/svg">
    <path d="M27.0365 30.1579C30.3164 30.1579 32.9753 27.499 32.9753 24.2191C32.9753 20.9392 30.3164 18.2803 27.0365 18.2803C23.7565 18.2803 21.0977 20.9392 21.0977 24.2191C21.0977 27.499 23.7565 30.1579 27.0365 30.1579Z" stroke="#A4ACAD" stroke-width="2.85062" stroke-linecap="round" stroke-linejoin="round"/>
    <path d="M38.9139 6.40265H27.0363C12.1893 6.40265 6.25049 12.3414 6.25049 27.1884V45.0048C6.25049 59.8518 12.1893 65.7906 27.0363 65.7906H44.8527C59.6997 65.7906 65.6385 59.8518 65.6385 45.0048V30.1578" stroke="#A4ACAD" stroke-width="2.85062" stroke-linecap="round" stroke-linejoin="round"/>
    <path d="M47.0798 15.3109H63.4115" stroke="#A4ACAD" stroke-width="2.85062" stroke-linecap="round"/>
    <path d="M55.2456 23.4767V7.14502" stroke="#A4ACAD" stroke-width="2.85062" stroke-linecap="round"/>
    <path d="M8.23999 56.734L22.8791 46.9053C25.225 45.3315 28.6101 45.5097 30.7183 47.321L31.6982 48.1821C34.0144 50.1716 37.7558 50.1716 40.072 48.1821L52.4247 37.5814C54.7408 35.5919 58.4822 35.5919 60.7984 37.5814L65.6385 41.7385" stroke="#A4ACAD" stroke-width="2.85062" stroke-linecap="round" stroke-linejoin="round"/>
</svg>
