<svg width="100" height="100" viewBox="0 0 100 100" fill="none" xmlns="http://www.w3.org/2000/svg">
    <path d="M62.5 39.0625H90.625V92.1875C90.625 93.8451 89.9665 95.4348 88.7944 96.6069C87.6223 97.779 86.0326 98.4375 84.375 98.4375H60.9375V39.0625H62.5Z" fill="#FFAD39"/>
    <path d="M39.0625 39.0625V98.4375H15.625C13.9674 98.4375 12.3777 97.779 11.2056 96.6069C10.0335 95.4348 9.375 93.8451 9.375 92.1875V39.0625H39.0625Z" fill="#FFAD39"/>
    <path d="M37.5 20.3125V39.0625H4.6875C3.85946 39.06 3.06604 38.73 2.48052 38.1445C1.89501 37.559 1.56497 36.7655 1.5625 35.9375V23.4375C1.56497 22.6095 1.89501 21.816 2.48052 21.2305C3.06604 20.645 3.85946 20.315 4.6875 20.3125H37.5Z" fill="#FEBD55"/>
    <path d="M98.4375 23.4375V35.9375C98.435 36.7655 98.105 37.559 97.5195 38.1445C96.934 38.73 96.1405 39.06 95.3125 39.0625H62.5V20.3125H95.3125C96.1405 20.315 96.934 20.645 97.5195 21.2305C98.105 21.816 98.435 22.6095 98.4375 23.4375Z" fill="#FEBD55"/>
    <path d="M57.8125 17.1875V20.3125H42.1875V17.1875C42.19 16.3595 42.52 15.566 43.1055 14.9805C43.691 14.395 44.4845 14.065 45.3125 14.0625H54.6875C55.5155 14.065 56.309 14.395 56.8945 14.9805C57.48 15.566 57.81 16.3595 57.8125 17.1875Z" fill="#CB3541"/>
    <path d="M54.6875 17.1875H45.3125C44.7669 17.1845 44.2316 17.0387 43.7598 16.7645C43.288 16.4904 42.8962 16.0975 42.6234 15.625C42.3414 16.0976 42.1909 16.6371 42.1875 17.1875V20.3125H57.8125V17.1875C57.8091 16.6371 57.6586 16.0976 57.3766 15.625C57.1038 16.0975 56.712 16.4904 56.2402 16.7645C55.7684 17.0387 55.2331 17.1845 54.6875 17.1875Z" fill="#A81E29"/>
    <path d="M42.1875 17.1875V20.3125H18.75C18.1308 20.3257 17.5154 20.2135 16.9407 19.9826C16.366 19.7517 15.844 19.4069 15.406 18.969C14.9681 18.531 14.6233 18.009 14.3924 17.4343C14.1615 16.8597 14.0493 16.2442 14.0625 15.625C14.0625 9.375 21.875 9.375 21.875 9.375C29.3735 9.40688 36.6002 12.1864 42.1875 17.1875Z" fill="#E03E3E"/>
    <path d="M29.6875 1.5625C42.1875 1.5625 42.1875 17.1875 42.1875 17.1875C36.6002 12.1864 29.3735 9.40688 21.875 9.375C21.875 9.375 21.875 1.5625 29.6875 1.5625Z" fill="#CB3541"/>
    <path d="M57.8125 17.1875C57.8125 17.1875 57.8125 1.5625 70.3125 1.5625C78.125 1.5625 78.125 9.375 78.125 9.375C70.6265 9.40688 63.3998 12.1864 57.8125 17.1875Z" fill="#CB3541"/>
    <path d="M57.8125 17.1875C63.3998 12.1864 70.6265 9.40688 78.125 9.375C78.125 9.375 85.9375 9.375 85.9375 15.625C85.9507 16.2442 85.8385 16.8597 85.6076 17.4343C85.3767 18.009 85.0319 18.531 84.594 18.969C84.156 19.4069 83.634 19.7517 83.0593 19.9826C82.4847 20.2135 81.8692 20.3257 81.25 20.3125H57.8125V17.1875Z" fill="#E03E3E"/>
    <path d="M39.0625 39.0625H60.9375V98.4375H39.0625V39.0625Z" fill="#CB3541"/>
    <path d="M62.5 20.3125V39.0625H60.9375H39.0625H37.5V20.3125H42.1875H57.8125H62.5Z" fill="#FF6161"/>
    <path d="M94.7344 66.0625C95.0625 67.5469 98.4375 68.7188 98.4375 70.3125C98.4375 71.9063 95.0625 73.0782 94.7344 74.5625C94.3906 76.0938 96.9219 78.6563 96.2812 80.0313C95.6094 81.4375 92.0781 81 91.125 82.2188C90.1719 83.4375 91.3906 86.8594 90.2031 87.8282C89.0156 88.7969 86.0156 86.8282 84.6406 87.5157C83.2969 88.1875 82.9219 91.8125 81.4375 92.1563C79.9844 92.5 78.1094 89.4063 76.5625 89.4063C75.0156 89.4063 73.1406 92.5 71.6875 92.1563C70.2031 91.8125 69.8281 88.1875 68.4688 87.5157C67.1094 86.8438 64.0938 88.7969 62.9219 87.8282C61.75 86.8594 62.9375 83.4219 61.9844 82.2188C61.0312 81.0157 57.5156 81.4375 56.8438 80.0313C56.2031 78.6563 58.7344 76.0938 58.3906 74.5625C58.0625 73.0782 54.6875 71.9063 54.6875 70.3125C54.6875 68.7188 58.0625 67.5469 58.3906 66.0625C58.7344 64.5313 56.2031 61.9688 56.8438 60.5938C57.5156 59.1875 61.0469 59.6251 62 58.4063C62.9531 57.1876 61.7344 53.7657 62.9219 52.7969C64.1094 51.8282 67.1094 53.7969 68.4844 53.1094C69.8281 52.4376 70.2031 48.8126 71.6875 48.4688C73.1406 48.1251 75.0156 51.2188 76.5625 51.2188C78.1094 51.2188 79.9844 48.1251 81.4375 48.4688C82.9219 48.8126 83.2969 52.4376 84.6562 53.1094C86.0156 53.7813 89.0312 51.8282 90.2031 52.7969C91.375 53.7657 90.1875 57.2032 91.1406 58.4063C92.0938 59.6094 95.6094 59.1875 96.2812 60.5938C96.9219 61.9688 94.3906 64.5313 94.7344 66.0625Z" fill="#CB3541"/>
    <path d="M93.75 70.3126C93.75 71.5626 91.0938 72.486 90.8391 73.6516C90.5719 74.8579 92.5578 76.8672 92.05 77.9547C91.5422 79.0422 88.75 78.7141 88.0094 79.6626C87.2688 80.611 88.2094 83.3157 87.2797 84.0766C86.35 84.8376 83.9984 83.2954 82.9156 83.8282C81.8328 84.361 81.5625 87.2063 80.3875 87.4797C79.2484 87.7454 77.7797 85.3094 76.5625 85.3094C75.3453 85.3094 73.8766 87.7454 72.7375 87.4797C71.5609 87.2063 71.2703 84.3547 70.2094 83.8282C69.1484 83.3016 66.7719 84.8344 65.8453 84.0766C64.9187 83.3188 65.8578 80.6157 65.1141 79.6626C64.3703 78.7094 61.5938 79.0626 61.0734 77.9532C60.5531 76.8438 62.5531 74.8563 62.2859 73.6516C62.0312 72.4844 59.375 71.5626 59.375 70.3126C59.375 69.0626 62.0312 68.1391 62.2859 66.9735C62.5531 65.7672 60.5672 63.7579 61.075 62.6704C61.5828 61.5829 64.375 61.911 65.1156 60.9626C65.8562 60.0141 64.9156 57.3094 65.8453 56.5485C66.775 55.7876 69.1266 57.3297 70.2094 56.7969C71.2922 56.2641 71.5625 53.4188 72.7375 53.1454C73.8766 52.8797 75.3453 55.3157 76.5625 55.3157C77.7797 55.3157 79.2484 52.8797 80.3875 53.1454C81.5641 53.4188 81.8547 56.2704 82.9156 56.7969C83.9766 57.3235 86.3531 55.7907 87.2797 56.5485C88.2063 57.3063 87.2672 60.0094 88.0109 60.9626C88.7547 61.9157 91.5312 61.5672 92.0516 62.6719C92.5719 63.7766 90.5719 65.7688 90.8391 66.9735C91.0938 68.1407 93.75 69.0626 93.75 70.3126Z" fill="#FF6161"/>
    <path d="M81.25 82.8125C80.3229 82.8125 79.4166 82.5376 78.6458 82.0225C77.8749 81.5074 77.2741 80.7754 76.9193 79.9188C76.5645 79.0623 76.4717 78.1198 76.6526 77.2105C76.8334 76.3012 77.2799 75.466 77.9354 74.8104C78.591 74.1549 79.4262 73.7084 80.3355 73.5276C81.2448 73.3467 82.1873 73.4395 83.0438 73.7943C83.9004 74.1491 84.6324 74.7499 85.1475 75.5208C85.6626 76.2916 85.9375 77.1979 85.9375 78.125C85.9375 79.3682 85.4436 80.5605 84.5646 81.4396C83.6855 82.3186 82.4932 82.8125 81.25 82.8125ZM81.25 76.5625C80.941 76.5625 80.6389 76.6541 80.3819 76.8258C80.125 76.9975 79.9247 77.2416 79.8064 77.5271C79.6882 77.8126 79.6572 78.1267 79.7175 78.4298C79.7778 78.7329 79.9266 79.0113 80.1451 79.2299C80.3637 79.4484 80.6421 79.5972 80.9452 79.6575C81.2483 79.7178 81.5624 79.6868 81.8479 79.5686C82.1335 79.4503 82.3775 79.25 82.5492 78.9931C82.7209 78.7361 82.8125 78.434 82.8125 78.125C82.8125 77.7106 82.6479 77.3132 82.3549 77.0201C82.0618 76.7271 81.6644 76.5625 81.25 76.5625Z" fill="#FBFBFB"/>
    <path d="M71.875 67.1875C70.9479 67.1875 70.0416 66.9126 69.2708 66.3975C68.4999 65.8824 67.8991 65.1504 67.5443 64.2938C67.1895 63.4373 67.0967 62.4948 67.2776 61.5855C67.4584 60.6762 67.9049 59.841 68.5604 59.1854C69.216 58.5299 70.0512 58.0834 70.9605 57.9026C71.8698 57.7217 72.8123 57.8145 73.6688 58.1693C74.5254 58.5241 75.2574 59.1249 75.7725 59.8958C76.2876 60.6666 76.5625 61.5729 76.5625 62.5C76.5625 63.7432 76.0686 64.9355 75.1896 65.8146C74.3105 66.6936 73.1182 67.1875 71.875 67.1875ZM71.875 60.9375C71.566 60.9375 71.2639 61.0291 71.0069 61.2008C70.75 61.3725 70.5497 61.6166 70.4314 61.9021C70.3132 62.1876 70.2822 62.5017 70.3425 62.8048C70.4028 63.1079 70.5516 63.3863 70.7701 63.6049C70.9887 63.8234 71.2671 63.9722 71.5702 64.0325C71.8733 64.0928 72.1874 64.0618 72.4729 63.9436C72.7585 63.8253 73.0025 63.625 73.1742 63.3681C73.3459 63.1111 73.4375 62.809 73.4375 62.5C73.4375 62.0856 73.2729 61.6882 72.9799 61.3951C72.6868 61.1021 72.2894 60.9375 71.875 60.9375Z" fill="#FBFBFB"/>
    <path d="M68.75 79.6875C68.441 79.6874 68.139 79.5957 67.8821 79.424C67.6252 79.2523 67.425 79.0083 67.3068 78.7229C67.1886 78.4374 67.1576 78.1233 67.2179 77.8202C67.2781 77.5172 67.4269 77.2388 67.6453 77.0203L83.2703 61.3953C83.565 61.1107 83.9597 60.9532 84.3694 60.9567C84.7791 60.9603 85.171 61.1246 85.4607 61.4143C85.7504 61.704 85.9147 62.0959 85.9183 62.5056C85.9218 62.9153 85.7643 63.31 85.4797 63.6047L69.8547 79.2297C69.5618 79.5227 69.1644 79.6874 68.75 79.6875Z" fill="#FBFBFB"/>
    <path d="M90.625 45.3125V39.0625H62.5H60.9375V45.3125H90.625Z" fill="#E68C15"/>
    <path d="M84.375 92.1875H60.9375V98.4375H84.375C86.0326 98.4375 87.6223 97.779 88.7944 96.6069C89.9665 95.4348 90.625 93.8451 90.625 92.1875V85.9375C90.625 87.5951 89.9665 89.1848 88.7944 90.3569C87.6223 91.529 86.0326 92.1875 84.375 92.1875Z" fill="#E68C15"/>
    <path d="M17.1875 64.0625V51.5625C17.1875 49.9049 17.846 48.3152 19.0181 47.1431C20.1902 45.971 21.7799 45.3125 23.4375 45.3125H39.0625V39.0625H9.375V92.1875C9.375 93.8451 10.0335 95.4348 11.2056 96.6069C12.3777 97.779 13.9674 98.4375 15.625 98.4375H39.0625V91.4672C32.8517 90.0516 27.3054 86.5696 23.3315 81.5911C19.3576 76.6126 17.1914 70.4326 17.1875 64.0625Z" fill="#E68C15"/>
    <path d="M45.3125 92.1875C43.2088 92.1812 41.1125 91.9396 39.0625 91.4672V98.4375H60.9375V92.1875H45.3125Z" fill="#A81E29"/>
    <path d="M39.0625 39.0625H60.9375V45.3125H39.0625V39.0625Z" fill="#A81E29"/>
    <path d="M17.9688 31.25C16.5183 31.25 15.1273 30.6738 14.1018 29.6482C13.0762 28.6227 12.5 27.2317 12.5 25.7812C12.5 24.3308 13.0762 22.9398 14.1018 21.9143C15.1273 20.8887 16.5183 20.3125 17.9688 20.3125H4.6875C3.85946 20.315 3.06604 20.645 2.48052 21.2305C1.89501 21.816 1.56497 22.6095 1.5625 23.4375V35.9375C1.56497 36.7655 1.89501 37.559 2.48052 38.1445C3.06604 38.73 3.85946 39.06 4.6875 39.0625H37.5V31.25H17.9688Z" fill="#FFA930"/>
    <path d="M95.3125 31.25H62.5V39.0625H95.3125C96.1405 39.06 96.934 38.73 97.5195 38.1445C98.105 37.559 98.435 36.7655 98.4375 35.9375V28.125C98.4375 28.9538 98.1083 29.7487 97.5222 30.3347C96.9362 30.9208 96.1413 31.25 95.3125 31.25Z" fill="#FFA930"/>
    <path d="M37.5 31.25V39.0625H39.0625H60.9375H62.5V31.25H37.5Z" fill="#CB3541"/>
    <path d="M35.9375 9.37498C35.9375 9.37498 26.8203 6.34216 22.075 7.76091C21.9613 8.29205 21.8943 8.83214 21.875 9.37498C29.3735 9.40685 36.6002 12.1864 42.1875 17.1875C42.1875 17.1875 42.1875 10.2922 38.5156 5.66248C38.5203 7.63904 37.9531 9.37498 35.9375 9.37498Z" fill="#A81E29"/>
    <path d="M65.625 9.37502C63.0312 9.37502 62.8328 6.50471 63.1703 3.93909C57.8125 8.31096 57.8125 17.1875 57.8125 17.1875C63.3998 12.1864 70.6265 9.4069 78.125 9.37502C78.1022 8.72477 78.0121 8.07862 77.8562 7.4469C72.9187 6.9469 65.625 9.37502 65.625 9.37502Z" fill="#A81E29"/>
    <path d="M35.7468 13.7203C35.7958 13.9489 35.7932 14.1856 35.7393 14.4131C35.6854 14.6406 35.5816 14.8532 35.4352 15.0356C35.2889 15.218 35.1038 15.3655 34.8934 15.4674C34.683 15.5694 34.4525 15.6232 34.2187 15.625H18.75C17.9212 15.625 17.1263 15.2957 16.5403 14.7097C15.9542 14.1236 15.625 13.3288 15.625 12.5V11.6609C15.1072 12.1796 14.7013 12.799 14.4326 13.4809C14.1638 14.1627 14.0379 14.8925 14.0625 15.625C14.0493 16.2441 14.1615 16.8596 14.3924 17.4343C14.6233 18.009 14.9681 18.531 15.406 18.9689C15.8439 19.4069 16.3659 19.7517 16.9406 19.9826C17.5153 20.2134 18.1308 20.3257 18.75 20.3125H42.1875V17.1875C40.1695 15.3362 37.8905 13.7916 35.4234 12.6031C35.56 12.9665 35.6682 13.34 35.7468 13.7203Z" fill="#CB3541"/>
    <path d="M82.8125 15.625H67.3437C67.1097 15.6237 66.8788 15.5702 66.668 15.4685C66.4572 15.3667 66.2718 15.2193 66.1251 15.0369C65.9784 14.8544 65.8743 14.6416 65.8202 14.4139C65.7661 14.1861 65.7635 13.9492 65.8125 13.7203C65.9584 13.0209 66.2058 12.3466 66.5469 11.7188C63.3348 13.0106 60.3775 14.8622 57.8125 17.1875V20.3125H81.25C81.8692 20.3257 82.4847 20.2135 83.0593 19.9826C83.634 19.7517 84.156 19.4069 84.594 18.969C85.0319 18.531 85.3767 18.009 85.6076 17.4343C85.8385 16.8597 85.9507 16.2442 85.9375 15.625C85.9392 14.9992 85.8448 14.3769 85.6578 13.7797C85.4115 14.3285 85.012 14.7946 84.5072 15.1219C84.0025 15.4492 83.4141 15.6239 82.8125 15.625Z" fill="#CB3541"/>
    <path d="M78.125 50.4687V20.3125H75V50.4687C75.1879 50.7025 75.4258 50.8911 75.6962 51.0207C75.9666 51.1502 76.2626 51.2175 76.5625 51.2175C76.8624 51.2175 77.1584 51.1502 77.4288 51.0207C77.6992 50.8911 77.9371 50.7025 78.125 50.4687Z" fill="#A81E29"/>
    <path d="M56.8438 80.0312C56.2031 78.6562 58.7344 76.0937 58.3906 74.5625C58.0625 73.0781 54.6875 71.9062 54.6875 70.3125C54.6875 68.7187 58.0625 67.5468 58.3906 66.0624C58.6437 64.9328 57.3375 63.25 56.8891 61.8796C55.5891 62.6609 52.7516 62.4718 52.1563 63.7187C51.5156 65.0937 54.0469 67.6562 53.7031 69.1874C53.375 70.6718 50 71.8437 50 73.4375C50 75.0312 53.375 76.2031 53.7031 77.6875C54.0469 79.2187 51.5156 81.7812 52.1563 83.1562C52.8281 84.5625 56.3594 84.125 57.2969 85.3437C58.2344 86.5625 57.0469 89.9843 58.2344 90.9531C58.8203 91.4375 59.8672 91.1875 60.9375 90.9015V81.5843C59.5172 81.1078 57.3547 81.1015 56.8438 80.0312Z" fill="#961B25"/>
    <path d="M71.6875 92.1562C70.2031 91.8125 69.8281 88.1875 68.4687 87.5156C67.1094 86.8437 64.0938 88.7968 62.9219 87.8281C61.75 86.8593 62.9375 83.4218 61.9844 82.2187C61.704 81.9106 61.3404 81.6902 60.9375 81.5844V90.9015C61.8347 90.5191 62.8294 90.4278 63.7812 90.6406C64.3202 91.0224 64.7261 91.5633 64.9422 92.1875C65.5406 93.4687 66.0359 95.0593 67 95.2812C68.4531 95.625 70.3281 92.5312 71.875 92.5312C73.4219 92.5312 75.2969 95.625 76.75 95.2812C77.7109 95.0593 78.2078 93.4687 78.8031 92.1875C78.9595 91.8378 79.15 91.5044 79.3719 91.1922C78.4203 90.3937 77.4391 89.4062 76.5594 89.4062C75.0156 89.4062 73.1406 92.5 71.6875 92.1562Z" fill="#E68C15"/>
    <path d="M86.0485 87.4359C85.5826 87.3177 85.0917 87.3455 84.6422 87.5156C83.7641 87.9547 83.2969 89.6438 82.6656 90.8656C83.7844 91.1656 84.8969 91.4594 85.5172 90.9531C86.25 90.3547 86.0703 88.8109 86.0485 87.4359Z" fill="#E68C15"/>
    <path d="M68.4844 53.1094C68.7206 52.9699 68.9216 52.778 69.0719 52.5484C68.3422 51.9406 67.6312 51.4438 67 51.5938C66.4859 51.7125 66.1078 52.2359 65.7734 52.8844C66.6302 53.2456 67.5798 53.3244 68.4844 53.1094Z" fill="#E68C15"/>
    <path d="M71.6875 48.4688C72.0121 48.4538 72.3362 48.5084 72.638 48.6288C72.9398 48.7493 73.2124 48.9328 73.4375 49.1672V39.0625H70.3125V50.0516C70.6828 49.2672 71.0938 48.6063 71.6875 48.4688Z" fill="#E68C15"/>
    <path d="M60.9375 55.9703C59.8703 55.686 58.8266 55.4391 58.2344 55.9219C57.4172 56.5891 57.7234 58.4219 57.6938 59.8875C58.5938 59.4891 59.9375 59.375 60.9375 59.0438V55.9703Z" fill="#961B25"/>
</svg>
