<svg width="21" height="21" viewBox="0 0 21 21" fill="none" xmlns="http://www.w3.org/2000/svg">
    <path d="M18.5431 18.1035H17.7098V8.71185C17.7098 8.19518 17.4765 7.71185 17.0681 7.39518L16.0431 6.59518L16.0265 4.55352C16.0265 4.09518 15.6515 3.72852 15.1931 3.72852H12.3515L11.2348 2.86185C10.6348 2.38685 9.7848 2.38685 9.1848 2.86185L3.35146 7.39518C2.94313 7.71185 2.7098 8.19518 2.7098 8.70352L2.66813 18.1035H1.87646C1.5348 18.1035 1.25146 18.3869 1.25146 18.7285C1.25146 19.0702 1.5348 19.3535 1.87646 19.3535H18.5431C18.8848 19.3535 19.1681 19.0702 19.1681 18.7285C19.1681 18.3869 18.8848 18.1035 18.5431 18.1035ZM5.62647 11.0202V9.77018C5.62647 9.31185 6.00147 8.93685 6.4598 8.93685H8.12647C8.5848 8.93685 8.9598 9.31185 8.9598 9.77018V11.0202C8.9598 11.4785 8.5848 11.8535 8.12647 11.8535H6.4598C6.00147 11.8535 5.62647 11.4785 5.62647 11.0202ZM12.2931 18.1035H8.12647V15.8119C8.12647 15.1202 8.6848 14.5619 9.37647 14.5619H11.0431C11.7348 14.5619 12.2931 15.1202 12.2931 15.8119V18.1035ZM14.7931 11.0202C14.7931 11.4785 14.4181 11.8535 13.9598 11.8535H12.2931C11.8348 11.8535 11.4598 11.4785 11.4598 11.0202V9.77018C11.4598 9.31185 11.8348 8.93685 12.2931 8.93685H13.9598C14.4181 8.93685 14.7931 9.31185 14.7931 9.77018V11.0202Z" fill="#262527"/>
</svg>
