<svg width="16" height="16" viewBox="0 0 16 16" fill="none" xmlns="http://www.w3.org/2000/svg">
    <path d="M8.00343 3.95732C5.732 3.95732 3.89986 5.76084 3.89986 7.99677C3.89986 10.2327 5.732 12.0362 8.00343 12.0362C10.2749 12.0362 12.107 10.2327 12.107 7.99677C12.107 5.76084 10.2749 3.95732 8.00343 3.95732ZM8.00343 10.6229C6.53557 10.6229 5.33557 9.44521 5.33557 7.99677C5.33557 6.54834 6.532 5.3706 8.00343 5.3706C9.47486 5.3706 10.6713 6.54834 10.6713 7.99677C10.6713 9.44521 9.47129 10.6229 8.00343 10.6229ZM13.232 3.79209C13.232 4.31592 12.8034 4.73428 12.2749 4.73428C11.7427 4.73428 11.3177 4.3124 11.3177 3.79209C11.3177 3.27178 11.7463 2.8499 12.2749 2.8499C12.8034 2.8499 13.232 3.27178 13.232 3.79209ZM15.9499 4.74834C15.8891 3.48623 15.5963 2.36826 14.657 1.44717C13.7213 0.526074 12.5856 0.237793 11.3034 0.174512C9.982 0.100684 6.02129 0.100684 4.69986 0.174512C3.42129 0.234277 2.28558 0.522558 1.34629 1.44365C0.407006 2.36474 0.11772 3.48271 0.0534347 4.74482C-0.0215652 6.0456 -0.0215652 9.94443 0.0534347 11.2452C0.114149 12.5073 0.407006 13.6253 1.34629 14.5464C2.28558 15.4675 3.41772 15.7558 4.69986 15.819C6.02129 15.8929 9.982 15.8929 11.3034 15.819C12.5856 15.7593 13.7213 15.471 14.657 14.5464C15.5927 13.6253 15.8856 12.5073 15.9499 11.2452C16.0249 9.94443 16.0249 6.04912 15.9499 4.74834ZM14.2427 12.6409C13.9641 13.33 13.4249 13.8608 12.7213 14.1386C11.6677 14.5499 9.16771 14.455 8.00343 14.455C6.83914 14.455 4.33557 14.5464 3.28558 14.1386C2.58558 13.8643 2.04629 13.3335 1.76415 12.6409C1.34629 11.6038 1.44272 9.14287 1.44272 7.99677C1.44272 6.85068 1.34986 4.38623 1.76415 3.35263C2.04272 2.66357 2.582 2.13271 3.28558 1.85498C4.33915 1.44365 6.83914 1.53857 8.00343 1.53857C9.16771 1.53857 11.6713 1.44717 12.7213 1.85498C13.4213 2.1292 13.9606 2.66006 14.2427 3.35263C14.6606 4.38974 14.5641 6.85068 14.5641 7.99677C14.5641 9.14287 14.6606 11.6073 14.2427 12.6409Z" fill="#262527"/>
</svg>
