<svg width="97" height="97" viewBox="0 0 97 97" fill="none" xmlns="http://www.w3.org/2000/svg">
    <path fill-rule="evenodd" clip-rule="evenodd" d="M49.2212 28.0739L39.741 22.556L38.4146 17.5652L33.4632 18.9021L32.1368 13.9114L27.1853 15.2483L25.8589 10.2575L20.9074 11.5944L18.6458 5.57591L24.9499 4.54248L53.2633 21.0165C57.2635 17.4373 63.2401 16.6598 68.1228 19.5039C74.2316 23.0565 76.3242 30.9286 72.7996 37.0911C69.2697 43.2483 61.4593 45.3574 55.3507 41.7994C50.4626 38.9552 48.1482 33.3519 49.2208 28.0737L49.2212 28.0739ZM64.0121 33.2456C66.4218 33.2456 68.3769 35.2162 68.3769 37.645C68.3769 40.0738 66.4218 42.0444 64.0121 42.0444C61.6024 42.0444 59.6473 40.0738 59.6473 37.645C59.6473 35.2162 61.6024 33.2456 64.0121 33.2456Z" fill="#FECA5C"/>
    <path fill-rule="evenodd" clip-rule="evenodd" d="M38.4148 17.5654L35.128 18.4496L33.8016 13.4643L32.1371 13.9117L28.8555 14.8012L27.5292 9.8105L25.8592 10.2579L22.5301 11.1581L20.4322 5.57625L25.3466 4.7666L53.2636 21.0169C53.0099 21.2087 53.5015 20.8038 53.2636 21.0169L54.31 21.6239C56.4397 19.7279 59.8586 18.002 62.6381 17.8051C64.5141 17.9384 66.3848 18.4923 68.1233 19.5041C74.2321 23.0567 76.3247 30.9288 72.8 37.0912C70.5964 40.9367 66.7125 43.2058 62.6225 43.4987C60.7517 43.3655 58.8758 42.8116 57.1373 41.7997C52.2546 38.9555 49.9347 33.3523 51.0074 28.0741L41.5272 22.5561L40.0793 17.1127L38.4148 17.5654ZM65.7983 33.2457C68.2132 33.2457 70.1631 35.2164 70.1631 37.6452C70.1631 40.0739 68.2132 42.0446 65.7983 42.0446C65.4918 42.0446 65.196 42.0126 64.9052 41.954C64.6198 42.0126 64.3187 42.0446 64.012 42.0446C61.6024 42.0446 59.6472 40.0739 59.6472 37.6452C59.6472 35.2164 61.6024 33.2457 64.012 33.2457C64.3185 33.2457 64.6198 33.2777 64.9052 33.3363C65.1958 33.2777 65.4916 33.2457 65.7983 33.2457Z" fill="#FFE177"/>
    <path fill-rule="evenodd" clip-rule="evenodd" d="M48.3651 41.7194H37.4159L33.7908 38.0656L30.1657 41.7194L26.546 38.0656L22.9209 41.7194L19.2958 38.0656L15.6706 41.7194L10.7246 37.6449L15.6706 33.5703H48.3649C50.0559 28.4571 54.8435 24.7715 60.482 24.7715C67.5365 24.7715 73.2541 30.5345 73.2541 37.6449C73.2541 44.7552 67.5365 50.5182 60.482 50.5182C54.8435 50.5182 50.0559 46.8324 48.3649 41.7194H48.3651ZM64.012 33.2454C66.4217 33.2454 68.3769 35.2161 68.3769 37.6449C68.3769 40.0736 66.4217 42.0443 64.012 42.0443C61.6024 42.0443 59.6472 40.0736 59.6472 37.6449C59.6472 35.2161 61.6024 33.2454 64.012 33.2454Z" fill="#FECA5C"/>
    <path fill-rule="evenodd" clip-rule="evenodd" d="M48.3652 41.72H39.2021L34.6841 37.1661L31.0644 40.82L27.4392 37.1661L23.8141 40.82L20.189 37.1661L16.4742 40.9105L12.511 37.6456L17.457 33.5711H50.1513C51.7525 28.7296 56.1279 25.1717 61.3752 24.8042C65.4019 25.0864 68.9159 27.2437 71.0562 30.4234C74.5756 35.6964 73.804 42.679 69.2436 47.0145C67.1615 48.9959 64.4137 50.2794 61.3752 50.4872C56.1279 50.1252 51.7525 46.5619 50.1513 41.7204H48.3652V41.72ZM64.0121 42.0449C66.3584 42.0449 68.377 40.1433 68.377 37.6454C68.377 35.0782 66.2686 33.1927 63.8958 33.246C61.5866 33.3047 59.6471 35.2167 59.6471 37.6454C59.6471 40.1274 61.6498 42.0449 64.012 42.0449H64.0121Z" fill="#FCDD6F"/>
    <path fill-rule="evenodd" clip-rule="evenodd" d="M54.0193 68.4307L56.5292 69.1018C57.8398 69.4481 58.4527 69.3149 60.7567 67.9726L83.1041 54.9712C85.7885 53.4053 89.255 54.3427 90.8086 57.0484C92.357 59.7594 91.427 63.2535 88.7425 64.814L58.2836 82.5396C56.6085 83.5145 54.6322 83.786 52.7615 83.28L31.862 77.6395C30.2819 77.2827 29.4682 77.1921 28.0626 78.0123L24.7863 79.9191L15.0313 62.8858L30.7892 53.714C32.1472 52.9204 34.0496 52.734 35.5397 53.2347L56.5026 58.8911C59.1288 59.605 60.7037 62.3531 60.0007 65.0002C59.2927 67.6633 56.64 69.1281 54.0189 68.4303L54.0193 68.4307Z" fill="#FFCBBE"/>
    <path d="M36.6919 63.8079C35.7777 63.5682 35.2333 62.6255 35.4764 61.7041C35.7143 60.7826 36.6496 60.234 37.5638 60.4737L59.1133 66.226C59.2242 66.2579 59.3247 66.2951 59.425 66.3432C58.3206 68.1275 56.1593 69.001 54.0244 68.4311L36.6919 63.8079Z" fill="#FABEAF"/>
    <path fill-rule="evenodd" clip-rule="evenodd" d="M17.5681 67.3177L15.0527 62.9235L22.2448 58.6838L30.7895 53.7145C32.1476 52.9208 34.05 52.7344 35.5401 53.2352L39.6143 54.3323L17.5681 67.3177Z" fill="#FABEAF"/>
    <path fill-rule="evenodd" clip-rule="evenodd" d="M4.17213 61.7466L11.4434 57.5177C13.4409 56.3512 16.0196 57.0489 17.1769 59.0622L29.6533 80.8463C30.8053 82.8649 30.113 85.4641 28.1155 86.6253L20.8442 90.8596C18.8467 92.0208 16.268 91.3229 15.1159 89.3096L2.63435 67.5256C1.48228 65.5123 2.17464 62.9131 4.17213 61.7466Z" fill="#837683"/>
    <path fill-rule="evenodd" clip-rule="evenodd" d="M8.45251 59.2537C10.4552 58.0925 13.0287 58.7903 14.1808 60.8036L26.6623 82.5878C27.8142 84.6064 27.122 87.2056 25.1246 88.3668L20.839 90.8594C18.8415 92.0206 16.268 91.3228 15.1161 89.3095L2.63435 67.5253C1.48228 65.512 2.17464 62.9128 4.17213 61.7463L8.45251 59.2537Z" fill="#A79BA7"/>
    <path d="M14.9256 69.5332C15.3801 70.3214 15.1159 71.3334 14.3285 71.7915C13.5465 72.2496 12.5424 71.9779 12.0879 71.1897L9.48269 66.6463C9.0282 65.8581 9.29776 64.8461 10.0798 64.388C10.8672 63.9299 11.8711 64.1962 12.3256 64.9898L14.9256 69.533V69.5332Z" fill="#CCC4CC"/>
</svg>
