<svg width="30" height="30" viewBox="0 0 30 30" fill="none" xmlns="http://www.w3.org/2000/svg">
    <path d="M2.86255 9.72497V21.8875C2.86255 24.2625 4.55005 25.2375 6.60005 24.0625L9.53755 22.3875C10.175 22.025 11.2375 21.9875 11.9 22.325L18.4625 25.6125C19.125 25.9375 20.1875 25.9125 20.825 25.55L26.2375 22.45C26.925 22.05 27.5 21.075 27.5 20.275V8.11247C27.5 5.73747 25.8126 4.76247 23.7626 5.93747L20.825 7.61247C20.1875 7.97497 19.125 8.01247 18.4625 7.67497L11.9 4.39997C11.2375 4.07497 10.175 4.09997 9.53755 4.46247L4.12505 7.56247C3.42505 7.96247 2.86255 8.93747 2.86255 9.72497Z" stroke="#262527" stroke-width="1.5" stroke-linecap="round" stroke-linejoin="round"/>
    <path d="M10.7 5V21.25" stroke="#262527" stroke-width="1.5" stroke-linecap="round" stroke-linejoin="round"/>
    <path d="M19.6626 8.27502V25" stroke="#262527" stroke-width="1.5" stroke-linecap="round" stroke-linejoin="round"/>
</svg>
