<svg width="34" height="34" viewBox="0 0 34 34" fill="none" xmlns="http://www.w3.org/2000/svg">
    <path d="M24.9701 29.302H8.63723C7.4256 29.302 6.43994 28.3163 6.43994 27.1047V26.3228C6.43994 26.0247 6.68147 25.7832 6.97946 25.7832C7.27751 25.7832 7.51904 26.0247 7.51904 26.3228V27.1047C7.51904 27.7213 8.02058 28.223 8.6373 28.223H24.9702C25.5868 28.223 26.0884 27.7214 26.0884 27.1047V6.29917C26.0884 5.68251 25.5868 5.1809 24.9702 5.1809H23.7168C23.4188 5.1809 23.1773 4.93937 23.1773 4.64132C23.1773 4.34333 23.4188 4.10181 23.7168 4.10181H24.9702C26.1818 4.10181 27.1675 5.08754 27.1675 6.2991V27.1046C27.1674 28.3163 26.1817 29.302 24.9701 29.302Z" fill="white"/>
    <path d="M27.5228 31.5873H11.19C9.97834 31.5873 8.99268 30.6013 8.99268 29.3898V28.9329C8.99268 28.6348 9.2342 28.3933 9.53219 28.3933C9.83024 28.3933 10.0718 28.6348 10.0718 28.9329V29.3898C10.0718 30.0064 10.5733 30.5082 11.19 30.5082H27.5229C28.1396 30.5082 28.6412 30.0064 28.6412 29.3898V8.58426C28.6412 7.9676 28.1396 7.46599 27.5229 7.46599H26.6283C26.3302 7.46599 26.0888 7.22446 26.0888 6.92648C26.0888 6.62849 26.3303 6.38696 26.6283 6.38696H27.5229C28.7345 6.38696 29.7202 7.37269 29.7202 8.58426V29.3897C29.7201 30.6013 28.7345 31.5873 27.5228 31.5873Z" fill="white"/>
    <path d="M16.0349 26.8622H5.72568C4.51405 26.8622 3.52832 25.8765 3.52832 24.6649V3.8594C3.52832 2.64784 4.51398 1.66211 5.72568 1.66211H22.0585C23.2701 1.66211 24.256 2.64784 24.256 3.8594V17.9724C24.256 18.2703 24.0145 18.5119 23.7165 18.5119C23.4185 18.5119 23.1769 18.2703 23.1769 17.9724V3.8594C23.1769 3.24275 22.6751 2.74114 22.0585 2.74114H5.72568C5.10903 2.74114 4.60742 3.24268 4.60742 3.8594V24.6649C4.60742 25.2815 5.10903 25.7831 5.72568 25.7831H16.0349C16.333 25.7831 16.5745 26.0246 16.5745 26.3227C16.5744 26.6207 16.3329 26.8622 16.0349 26.8622Z" fill="white"/>
    <path d="M20.4564 6.00976H7.32858C7.03059 6.00976 6.78906 5.76823 6.78906 5.47024C6.78906 5.17219 7.03059 4.93066 7.32858 4.93066H20.4565C20.7545 4.93066 20.9961 5.17219 20.9961 5.47024C20.996 5.76823 20.7545 6.00976 20.4564 6.00976Z" fill="white"/>
    <path d="M20.4564 8.37688H7.32858C7.03059 8.37688 6.78906 8.13542 6.78906 7.83737C6.78906 7.53938 7.03059 7.29785 7.32858 7.29785H20.4565C20.7545 7.29785 20.9961 7.53938 20.9961 7.83737C20.996 8.13535 20.7545 8.37688 20.4564 8.37688Z" fill="white"/>
    <path d="M20.4564 10.7439H7.32858C7.03059 10.7439 6.78906 10.5024 6.78906 10.2044C6.78906 9.90632 7.03059 9.66479 7.32858 9.66479H20.4565C20.7545 9.66479 20.9961 9.90632 20.9961 10.2044C20.996 10.5024 20.7545 10.7439 20.4564 10.7439Z" fill="white"/>
    <path d="M20.4564 13.1111H7.32858C7.03059 13.1111 6.78906 12.8695 6.78906 12.5716C6.78906 12.2735 7.03059 12.032 7.32858 12.032H20.4565C20.7545 12.032 20.9961 12.2735 20.9961 12.5716C20.996 12.8695 20.7545 13.1111 20.4564 13.1111Z" fill="white"/>
    <path d="M20.4564 15.4777H7.32858C7.03059 15.4777 6.78906 15.2362 6.78906 14.9382C6.78906 14.6402 7.03059 14.3987 7.32858 14.3987H20.4565C20.7545 14.3987 20.9961 14.6402 20.9961 14.9382C20.996 15.2362 20.7545 15.4777 20.4564 15.4777Z" fill="white"/>
    <path d="M17.0686 17.8452H7.32858C7.03059 17.8452 6.78906 17.6037 6.78906 17.3056C6.78906 17.0076 7.03059 16.7661 7.32858 16.7661H17.0686C17.3666 16.7661 17.6081 17.0076 17.6081 17.3056C17.6081 17.6037 17.3666 17.8452 17.0686 17.8452Z" fill="white"/>
    <path d="M14.4463 20.2122H7.32858C7.03059 20.2122 6.78906 19.9706 6.78906 19.6726C6.78906 19.3746 7.03059 19.1331 7.32858 19.1331H14.4464C14.7444 19.1331 14.9859 19.3746 14.9859 19.6726C14.9859 19.9706 14.7443 20.2122 14.4463 20.2122Z" fill="white"/>
    <path d="M13.7085 22.5789H7.32858C7.03059 22.5789 6.78906 22.3373 6.78906 22.0393C6.78906 21.7413 7.03059 21.4998 7.32858 21.4998H13.7085C14.0066 21.4998 14.2481 21.7413 14.2481 22.0393C14.2481 22.3374 14.0066 22.5789 13.7085 22.5789Z" fill="white"/>
    <path d="M19.8869 26.3178C17.5278 26.3178 15.6084 24.3985 15.6084 22.0393C15.6084 19.6801 17.5277 17.7607 19.8869 17.7607C22.2462 17.7607 24.1655 19.6801 24.1655 22.0393C24.1654 24.3985 22.2461 26.3178 19.8869 26.3178ZM19.8869 18.8398C18.1227 18.8398 16.6875 20.2751 16.6875 22.0393C16.6875 23.8035 18.1228 25.2387 19.8869 25.2387C21.6512 25.2387 23.0864 23.8035 23.0864 22.0393C23.0864 20.2751 21.6512 18.8398 19.8869 18.8398Z" fill="white"/>
    <path d="M19.4411 24.0332C19.3235 24.0332 19.2085 23.9948 19.1138 23.9225L17.8221 22.9368C17.5853 22.756 17.5397 22.4175 17.7205 22.1806C17.9013 21.9437 18.2398 21.8982 18.4767 22.079L19.3239 22.7254L20.7701 20.6828C20.9423 20.4396 21.2793 20.3823 21.5221 20.5542C21.7653 20.7264 21.8228 21.063 21.6506 21.3062L19.8813 23.8054C19.7968 23.9249 19.6672 24.0049 19.5224 24.0271C19.4955 24.0311 19.4681 24.0332 19.4411 24.0332Z" fill="white"/>
</svg>
