<svg width="21" height="21" viewBox="0 0 21 21" fill="none" xmlns="http://www.w3.org/2000/svg">
<path d="M16.6863 7.64518L12.9113 3.87018C12.1196 3.07852 11.0279 2.65352 9.91127 2.71185L5.74461 2.91185C4.07794 2.98685 2.75294 4.31185 2.66961 5.97018L2.46961 10.1368C2.41961 11.2535 2.83627 12.3452 3.62794 13.1368L7.40294 16.9118C8.95294 18.4618 11.4696 18.4618 13.0279 16.9118L16.6863 13.2535C18.2446 11.7118 18.2446 9.19518 16.6863 7.64518ZM8.07794 10.7118C6.76128 10.7118 5.67794 9.63685 5.67794 8.31185C5.67794 6.98685 6.76128 5.91185 8.07794 5.91185C9.39461 5.91185 10.4779 6.98685 10.4779 8.31185C10.4779 9.63685 9.39461 10.7118 8.07794 10.7118ZM14.7696 11.6702L11.4363 15.0035C11.3113 15.1285 11.1529 15.1868 10.9946 15.1868C10.8363 15.1868 10.6779 15.1285 10.5529 15.0035C10.3113 14.7618 10.3113 14.3618 10.5529 14.1202L13.8863 10.7868C14.1279 10.5452 14.5279 10.5452 14.7696 10.7868C15.0113 11.0285 15.0113 11.4285 14.7696 11.6702Z" fill="#262527"/>
</svg>
