<svg width="75" height="75" viewBox="0 0 75 75" fill="none" xmlns="http://www.w3.org/2000/svg">
    <path d="M62.0452 24.4248L62.0453 62.0056C62.0453 63.0962 61.8243 64.1762 61.395 65.1838C60.9657 66.1914 60.3364 67.1069 59.5431 67.8781C58.7499 68.6493 57.8081 69.261 56.7716 69.6784C55.7352 70.0958 54.6243 70.3106 53.5024 70.3106H21.4955C20.3736 70.3106 19.2627 70.0958 18.2263 69.6784C17.1898 69.261 16.248 68.6493 15.4548 67.8781C14.6615 67.1069 14.0322 66.1914 13.6029 65.1838C13.1736 64.1762 12.9526 63.0962 12.9526 62.0056V12.9925C12.9526 11.9018 13.1736 10.8219 13.6029 9.81429C14.0322 8.80668 14.6615 7.89115 15.4548 7.11996C16.2481 6.34877 17.1898 5.73703 18.2263 5.31967C19.2627 4.90231 20.3736 4.6875 21.4955 4.6875L41.8437 4.68756L62.0452 24.4248Z" fill="#FF0000"/>
    <path d="M42.7314 5.55493C41.0932 9.77176 37.3021 16.2366 41.1249 21.6707C42.1181 23.1779 48.168 25.5078 51.965 26.8523C54.3886 27.7104 56.3822 30.4156 56.3822 32.9917L56.7001 58.0763C56.7001 62.663 52.8779 66.3793 48.1599 66.3793H16.153C15.4412 66.3793 14.7502 66.292 14.0891 66.1326C15.6094 68.7151 18.4346 70.3097 21.4954 70.3125H53.5023C58.2223 70.3137 62.0488 66.5934 62.0472 62.0048V24.4231L42.7314 5.55493Z" fill="#D40000"/>
    <path d="M17.3699 9.79005C17.6906 9.78877 17.9988 9.91437 18.2273 10.1395C18.4557 10.3645 18.5859 10.6708 18.5893 10.9915V14.3986C18.59 14.5589 18.5588 14.7178 18.4978 14.866C18.4367 15.0143 18.3469 15.1489 18.2336 15.2623C18.1202 15.3756 17.9855 15.4654 17.8373 15.5265C17.6891 15.5875 17.5302 15.6187 17.3699 15.618C17.0492 15.6146 16.743 15.4844 16.5179 15.256C16.2928 15.0275 16.1672 14.7193 16.1685 14.3986V10.9915C16.1719 10.6739 16.2996 10.3703 16.5241 10.1457C16.7487 9.92115 17.0523 9.79347 17.3699 9.79005Z" fill="white"/>
    <path d="M17.3699 16.4251C17.5302 16.4244 17.6891 16.4555 17.8373 16.5166C17.9855 16.5776 18.1202 16.6674 18.2336 16.7808C18.3469 16.8942 18.4367 17.0288 18.4978 17.1771C18.5588 17.3253 18.59 17.4841 18.5893 17.6445V18.1465C18.5859 18.4672 18.4557 18.7735 18.2273 18.9986C17.9988 19.2237 17.6906 19.3493 17.3699 19.348C17.0523 19.3446 16.7487 19.2169 16.5241 18.9923C16.2996 18.7678 16.1719 18.4641 16.1685 18.1466V17.6445C16.1672 17.3238 16.2928 17.0156 16.5179 16.7871C16.743 16.5587 17.0492 16.4285 17.3699 16.4251Z" fill="white"/>
    <path d="M41.8449 4.68848L39.1902 15.0631C39.0136 15.7532 38.9852 16.4716 39.1067 17.173C39.2282 17.8743 39.497 18.5435 39.8962 19.1384C40.2954 19.7333 40.8164 20.241 41.4263 20.6295C42.0361 21.018 42.7218 21.279 43.4399 21.3959L62.0464 24.4257L41.8449 4.68848Z" fill="#FF8080"/>
    <path d="M37.5498 30.8008C36.1359 30.821 35.1521 31.7203 34.6746 32.2574C33.5675 33.5027 33.5168 35.2097 33.887 36.8643C34.2573 38.519 35.0501 40.2803 36.0173 42.0644C36.1259 42.2646 36.2461 42.3999 36.359 42.6005C34.4139 46.1402 31.7385 49.9937 29.4034 53.067C26.3718 53.7877 23.4701 54.1413 21.7267 56.1036C20.2669 57.7487 20.1655 60.2481 21.7267 61.7022C22.4059 62.2984 23.356 62.6003 24.1844 62.6131C24.9624 62.6042 25.6264 62.3827 26.1582 62.058C28.1963 60.8137 29.5236 58.1713 30.9929 55.1167L42.9065 52.3412C44.6938 54.5568 46.5539 56.7285 48.7708 57.4131C49.7986 57.7305 50.884 57.6929 51.8547 57.3419C52.8255 56.9909 53.7328 56.2965 54.1464 55.2259C54.8683 53.2809 54.0722 51.1261 52.2106 50.1534C50.7653 49.3737 48.9642 49.2409 46.9583 49.3279C45.9333 49.3723 44.8504 49.482 43.751 49.641C42.4515 47.6609 40.7027 45.0439 39.1772 42.4957C40.0721 40.7196 40.8493 38.9714 41.1842 37.3668C41.5581 35.5753 41.4834 33.8108 40.4677 32.4514C39.7392 31.3 38.6275 30.8083 37.5498 30.8008ZM38.5272 33.8705C38.9692 34.4408 39.1192 35.4143 38.8166 36.8643C38.6485 37.6701 38.0791 38.7516 37.6685 39.7348C37.0794 38.5211 36.4621 37.2769 36.2498 36.3282C35.9649 35.055 36.1607 34.3491 36.4871 33.8705C36.7163 33.496 37.0271 33.2665 37.4728 33.2408C37.9422 33.2146 38.2535 33.5174 38.5272 33.8705ZM37.7918 44.8447C38.9335 46.6637 40.1488 48.556 41.1415 50.0922L33.1706 52.028C34.7784 49.5891 36.4653 47.1004 37.7918 44.8447ZM51.0481 52.2842C51.9246 52.7571 52.1881 53.5062 51.8689 54.3481C51.5688 55.1238 50.1242 55.3325 49.4872 55.1025C48.6222 54.8353 47.2279 53.2318 45.9525 51.9094C46.3052 51.8219 46.7341 51.7625 47.0674 51.748C48.35 51.6916 49.8515 51.7218 51.0481 52.2842ZM27.2304 56.4262C26.3869 57.7975 25.4368 59.66 24.8818 59.9989C24.3331 60.3763 23.6995 60.2356 23.3778 59.9087C22.9331 59.48 22.8565 58.5121 23.5581 57.7215C24.2731 57.0337 25.2945 56.746 27.2304 56.4262Z" fill="white"/>
</svg>
