<svg width="59" height="59" viewBox="0 0 59 59" fill="none" xmlns="http://www.w3.org/2000/svg">
    <path opacity="0.4" d="M51.7477 21.0625V37.8534C51.7477 40.6028 50.2748 43.1559 47.8936 44.5551L33.312 52.9752C30.9308 54.3499 27.985 54.3499 25.5793 52.9752L10.9976 44.5551C8.61645 43.1804 7.14355 40.6273 7.14355 37.8534V21.0625C7.14355 18.3131 8.61645 15.76 10.9976 14.3607L25.5793 5.94069C27.9604 4.56599 30.9062 4.56599 33.312 5.94069L47.8936 14.3607C50.2748 15.76 51.7477 18.2885 51.7477 21.0625Z" fill="#607D8B"/>
    <path d="M29.458 29.4578C32.6169 29.4578 35.1777 26.897 35.1777 23.7381C35.1777 20.5791 32.6169 18.0184 29.458 18.0184C26.2991 18.0184 23.7383 20.5791 23.7383 23.7381C23.7383 26.897 26.2991 29.4578 29.458 29.4578Z" fill="#607D8B"/>
    <path d="M36.0369 40.8972C38.0253 40.8972 39.1791 38.688 38.0744 37.0433C36.4051 34.5639 33.1647 32.8947 29.458 32.8947C25.7512 32.8947 22.5108 34.5639 20.8415 37.0433C19.7369 38.688 20.8906 40.8972 22.879 40.8972H36.0369Z" fill="#607D8B"/>
</svg>
