<svg width="20" height="20" viewBox="0 0 20 20" fill="none" xmlns="http://www.w3.org/2000/svg">
    <path d="M11.4416 2.92471L12.9083 5.85804C13.1083 6.26637 13.6416 6.65804 14.0916 6.73304L16.7499 7.17471C18.4499 7.45804 18.8499 8.69137 17.6249 9.90804L15.5583 11.9747C15.2083 12.3247 15.0166 12.9997 15.1249 13.483L15.7166 16.0414C16.1833 18.0664 15.1083 18.8497 13.3166 17.7914L10.8249 16.3164C10.3749 16.0497 9.63326 16.0497 9.17492 16.3164L6.68326 17.7914C4.89992 18.8497 3.81659 18.058 4.28326 16.0414L4.87492 13.483C4.98326 12.9997 4.79159 12.3247 4.44159 11.9747L2.37492 9.90804C1.15826 8.69137 1.54992 7.45804 3.24992 7.17471L5.90826 6.73304C6.34992 6.65804 6.88326 6.26637 7.08326 5.85804L8.54992 2.92471C9.34992 1.33304 10.6499 1.33304 11.4416 2.92471Z" fill="#F6C82F"/>
</svg>
