<svg width="24" height="24" viewBox="0 0 24 24" fill="none" xmlns="http://www.w3.org/2000/svg">
  <path d="M21 5.5C20.3 5.8 19.6 6 18.9 6.1C19.7 5.6 20.3 4.8 20.6 3.9C19.9 4.3 19.1 4.6 18.2 4.8C17.5 4.1 16.5 3.7 15.5 3.7C13.3 3.7 11.5 5.5 11.5 7.7C11.5 8 11.5 8.3 11.6 8.6C8.3 8.5 5.4 6.9 3.5 4.5C3.2 5.1 3.1 5.7 3.1 6.4C3.1 7.7 3.8 8.8 4.8 9.5C4.2 9.5 3.6 9.3 3.1 9C3.1 9 3.1 9 3.1 9.1C3.1 11 4.5 12.6 6.3 12.9C5.8 13 5.4 13.1 4.9 13.1C4.6 13.1 4.3 13 4 12.9C4.6 14.5 6.1 15.6 7.9 15.6C6.5 16.7 4.7 17.3 2.8 17.3C2.4 17.3 2 17.3 1.6 17.2C3.4 18.3 5.6 19 7.9 19C15.5 19 19.7 13.4 19.7 8.2C19.7 8 19.7 7.8 19.7 7.6C20.5 7 21.2 6.3 21.8 5.5H21Z" fill="currentColor"/>
</svg>
