<svg width="26" height="26" viewBox="0 0 26 26" fill="none" xmlns="http://www.w3.org/2000/svg">
    <path d="M13 2.58333C10.2709 2.58333 8.05212 4.80208 8.05212 7.53125C8.05212 10.2083 10.1459 12.375 12.875 12.4688C12.9584 12.4583 13.0417 12.4583 13.1042 12.4688C13.125 12.4688 13.1355 12.4688 13.1563 12.4688C13.1667 12.4688 13.1667 12.4688 13.1771 12.4688C15.8438 12.375 17.9375 10.2083 17.948 7.53125C17.948 4.80208 15.7292 2.58333 13 2.58333Z" fill="#262527"/>
    <path d="M18.2916 15.2396C15.3854 13.3021 10.6458 13.3021 7.71871 15.2396C6.39579 16.125 5.66663 17.3229 5.66663 18.6042C5.66663 19.8854 6.39579 21.0729 7.70829 21.9479C9.16663 22.9271 11.0833 23.4167 13 23.4167C14.9166 23.4167 16.8333 22.9271 18.2916 21.9479C19.6041 21.0625 20.3333 19.875 20.3333 18.5833C20.3229 17.3021 19.6041 16.1146 18.2916 15.2396Z" fill="#262527"/>
</svg>
