<svg width="18" height="19" viewBox="0 0 18 19" fill="none" xmlns="http://www.w3.org/2000/svg">
    <path d="M13.5001 6.16035C13.4551 6.15285 13.4026 6.15285 13.3576 6.16035C12.3226 6.12285 11.4976 5.27535 11.4976 4.22535C11.4976 3.15285 12.3601 2.29034 13.4326 2.29034C14.5051 2.29034 15.3676 3.16035 15.3676 4.22535C15.3601 5.27535 14.5351 6.12285 13.5001 6.16035Z" stroke="#262527" stroke-linecap="round" stroke-linejoin="round"/>
    <path d="M12.7276 11.6203C13.7551 11.7928 14.8876 11.6128 15.6826 11.0803C16.7401 10.3753 16.7401 9.22034 15.6826 8.51534C14.8801 7.98284 13.7326 7.80284 12.7051 7.98284" stroke="#262527" stroke-linecap="round" stroke-linejoin="round"/>
    <path d="M4.47761 6.16035C4.52261 6.15285 4.57511 6.15285 4.62011 6.16035C5.65511 6.12285 6.48011 5.27535 6.48011 4.22535C6.48011 3.15285 5.61761 2.29034 4.54511 2.29034C3.47261 2.29034 2.61011 3.16035 2.61011 4.22535C2.61761 5.27535 3.44261 6.12285 4.47761 6.16035Z" stroke="#262527" stroke-linecap="round" stroke-linejoin="round"/>
    <path d="M5.25008 11.6203C4.22258 11.7928 3.09008 11.6128 2.29508 11.0803C1.23758 10.3753 1.23758 9.22034 2.29508 8.51534C3.09758 7.98284 4.24508 7.80284 5.27258 7.98284" stroke="#262527" stroke-linecap="round" stroke-linejoin="round"/>
    <path d="M9.00006 11.7629C8.95506 11.7554 8.90256 11.7554 8.85756 11.7629C7.82256 11.7254 6.99756 10.8779 6.99756 9.82785C6.99756 8.75535 7.86006 7.89285 8.93256 7.89285C10.0051 7.89285 10.8676 8.76285 10.8676 9.82785C10.8601 10.8779 10.0351 11.7329 9.00006 11.7629Z" stroke="#262527" stroke-linecap="round" stroke-linejoin="round"/>
    <path d="M6.81754 14.1254C5.76004 14.8304 5.76004 15.9854 6.81754 16.6904C8.01754 17.4929 9.98254 17.4929 11.1825 16.6904C12.24 15.9854 12.24 14.8304 11.1825 14.1254C9.99004 13.3304 8.01754 13.3304 6.81754 14.1254Z" stroke="#262527" stroke-linecap="round" stroke-linejoin="round"/>
</svg>
