<svg width="33" height="33" viewBox="0 0 33 33" fill="none" xmlns="http://www.w3.org/2000/svg">
    <path d="M27.9751 12.1939C27.6218 11.8377 27.4227 11.3568 27.4208 10.8551V9.16439C27.4194 8.13655 27.0104 7.15122 26.2834 6.42455C25.5565 5.69788 24.5711 5.2892 23.5432 5.28815H21.8551C21.6065 5.2888 21.3603 5.24028 21.1305 5.14537C20.9007 5.05047 20.692 4.91105 20.5163 4.73516L19.0743 3.29182C18.3467 2.56603 17.3609 2.15845 16.3331 2.15845C15.3054 2.15845 14.3196 2.56603 13.592 3.29182L12.15 4.73516C11.9744 4.91129 11.7657 5.05095 11.536 5.14609C11.3062 5.24122 11.0598 5.28995 10.8112 5.28947H9.12175C8.0939 5.29052 7.10844 5.6992 6.38152 6.42588C5.6546 7.15255 5.24558 8.13787 5.24418 9.16571V10.8551C5.24284 11.3563 5.04417 11.8368 4.69119 12.1926L3.24653 13.636C2.52075 14.3636 2.11316 15.3494 2.11316 16.3771C2.11316 17.4048 2.52075 18.3906 3.24653 19.1183L4.69119 20.5603C5.0445 20.9165 5.24359 21.3974 5.24551 21.8991V23.5898C5.24691 24.6177 5.65593 25.603 6.38285 26.3297C7.10977 27.0563 8.09523 27.465 9.12307 27.4661H10.8112C11.0598 27.4656 11.3062 27.5143 11.536 27.6095C11.7657 27.7046 11.9744 27.8442 12.15 28.0204L13.592 29.4637C14.3195 30.1898 15.3053 30.5976 16.3331 30.5976C17.361 30.5976 18.3468 30.1898 19.0743 29.4637L20.5163 28.0204C20.6919 27.8442 20.9006 27.7046 21.1303 27.6095C21.3601 27.5143 21.6064 27.4656 21.8551 27.4661H23.5445C24.5724 27.465 25.5578 27.0563 26.2848 26.3297C27.0117 25.603 27.4207 24.6177 27.4221 23.5898V21.8991C27.4232 21.3976 27.6225 20.9169 27.9764 20.5616L29.4198 19.1183C30.1455 18.3906 30.5531 17.4048 30.5531 16.3771C30.5531 15.3494 30.1455 14.3636 29.4198 13.636L27.9751 12.1939Z" fill="white"/>
    <path d="M16.3332 25.307C21.2651 25.307 25.2631 21.3089 25.2631 16.3771C25.2631 11.4452 21.2651 7.44714 16.3332 7.44714C11.4014 7.44714 7.40332 11.4452 7.40332 16.3771C7.40332 21.3089 11.4014 25.307 16.3332 25.307Z" fill="#EBEBEB"/>
    <path d="M15.0105 20.0153C14.8801 20.0156 14.751 19.99 14.6307 19.9401C14.5103 19.8901 14.4011 19.8167 14.3093 19.7242L11.6634 17.0783C11.4881 16.8902 11.3927 16.6415 11.3972 16.3844C11.4018 16.1274 11.5059 15.8821 11.6877 15.7003C11.8695 15.5185 12.1148 15.4144 12.3718 15.4098C12.6289 15.4053 12.8776 15.5007 13.0657 15.676L15.0105 17.6194L19.6011 13.0301C19.7892 12.8548 20.038 12.7594 20.295 12.7639C20.5521 12.7685 20.7973 12.8726 20.9791 13.0544C21.1609 13.2362 21.265 13.4815 21.2696 13.7385C21.2741 13.9956 21.1787 14.2443 21.0034 14.4324L15.7116 19.7242C15.6198 19.8167 15.5106 19.8901 15.3902 19.9401C15.2699 19.99 15.1408 20.0156 15.0105 20.0153Z" fill="#262527"/>
</svg>
