<svg width="97" height="91" viewBox="0 0 97 91" fill="none" xmlns="http://www.w3.org/2000/svg">
    <path d="M10.269 55.4478H18.3845V65.3836H10.269V55.4478Z" fill="#FFDFCF"/>
    <path d="M15.4957 55.4473H18.3856V65.3852H15.4957V55.4473Z" fill="#FFCEBF"/>
    <path d="M28.4231 67.0082V82.9911L20.1848 90.2944H2.3282C1.16873 90.2944 0.229927 89.3537 0.229927 88.1961V82.9911L1.76105 79.776L0.229927 76.5608V68.4813C0.229927 67.5889 0.76611 66.7837 1.59071 66.4411L10.2683 62.8291H18.3846L23.6129 65.0048L28.4231 67.0082Z" fill="#FEA613"/>
    <path d="M28.423 67.0083V82.9912L20.1847 90.2945H17.2773L23.6128 65.0049L28.423 67.0083Z" fill="#FE9901"/>
    <path d="M15.7791 67.711V90.2946H12.8756V67.711C12.8756 66.9077 13.524 66.2593 14.3273 66.2593C15.1287 66.2593 15.7791 66.9077 15.7791 67.711Z" fill="#FE9901"/>
    <path d="M19.0751 58.0034H9.57829C6.75279 58.0034 4.4623 55.713 4.4623 52.8874V43.8846L14.3377 42.8384L24.1911 43.8846V52.8876C24.1911 55.713 21.9006 58.0034 19.0751 58.0034Z" fill="#FFDFCF"/>
    <path d="M24.1905 43.8845V52.8873C24.1905 55.7134 21.9006 58.0033 19.0745 58.0033H16.2948C19.1209 58.0033 21.4108 55.7134 21.4108 52.8873V43.8845L22.2896 43.6826L24.1905 43.8845Z" fill="#FFCEBF"/>
    <path d="M25.2912 38.6692L14.3378 40.3506L3.36228 38.6692C3.36228 33.9719 7.17015 30.1641 11.8675 30.1641H16.786C21.4833 30.1641 25.2912 33.9719 25.2912 38.6692Z" fill="#FFD15B"/>
    <path d="M25.2922 38.6699L23.2403 38.9841L22.8433 38.6699C22.8433 33.972 19.0359 30.1646 14.338 30.1646H16.7866C21.4827 30.1646 25.2922 33.972 25.2922 38.6699Z" fill="#FEA613"/>
    <path d="M10.269 62.8291L13.3229 68.9036C13.7377 69.7288 14.9156 69.7288 15.3306 68.9036L18.3845 62.8291H10.269Z" fill="#0593FC"/>
    <path d="M18.3856 62.8291L15.3303 68.9046C14.9153 69.7296 13.7374 69.7296 13.3228 68.9044L12.8824 68.0283L15.4956 62.8291H18.3856Z" fill="#0181FA"/>
    <path d="M0.229927 76.561H28.4231V82.9914H0.229927V76.561Z" fill="#EAF6FF"/>
    <path d="M28.423 76.561V82.9914H19.1066L20.7171 76.561H28.423Z" fill="#C8EFFE"/>
    <path d="M12.8756 76.561H15.7791V82.9914H12.8756V76.561Z" fill="#C8EFFE"/>
    <path d="M14.3269 49.5507C13.525 49.5507 12.8751 48.9007 12.8751 48.0989V43.8854C12.8751 43.0836 13.525 42.4336 14.3269 42.4336C15.1289 42.4336 15.7787 43.0836 15.7787 43.8854V48.0991C15.7787 48.9007 15.1289 49.5507 14.3269 49.5507Z" fill="#FFCEBF"/>
    <path d="M14.3268 55.0405C12.7848 55.0405 11.3669 54.1377 10.7144 52.7407C10.3753 52.0143 10.6891 51.1504 11.4155 50.8111C12.142 50.4717 13.0061 50.7857 13.3454 51.5122C13.5225 51.8916 13.9077 52.137 14.3268 52.137C14.7459 52.137 15.1311 51.8917 15.3082 51.5122C15.6475 50.7859 16.5114 50.4717 17.238 50.8111C17.9645 51.1502 18.2783 52.0143 17.9391 52.7407C17.2866 54.1379 15.8687 55.0405 14.3268 55.0405Z" fill="#FFCEBF"/>
    <path d="M27.2655 39.7791V42.7755C27.2655 43.3872 26.768 43.8847 26.1563 43.8847H2.49654C1.88487 43.8847 1.38934 43.3872 1.38934 42.7755V39.7791C1.38934 39.1655 1.88487 38.67 2.49654 38.67H10.247C11.149 38.67 11.8788 37.9383 11.8788 37.0382V28.6993C11.8788 28.165 12.3124 27.7314 12.8485 27.7314H15.8043C16.3405 27.7314 16.7741 28.165 16.7741 28.6993V37.0382C16.7741 37.9383 17.5058 38.67 18.4059 38.67H26.1563C26.768 38.67 27.2655 39.1655 27.2655 39.7791Z" fill="#FEA613"/>
    <path d="M27.2645 39.7791V42.7755C27.2645 43.3872 26.7689 43.8846 26.1573 43.8846H23.3621C23.9758 43.8846 24.4713 43.3872 24.4713 42.7755V39.7791C24.4713 39.1655 23.9758 38.6699 23.3621 38.6699H26.1573C26.7689 38.6699 27.2645 39.1655 27.2645 39.7791Z" fill="#FE9901"/>
    <path d="M18.4059 38.67H15.7269C14.9526 38.67 14.3255 38.0428 14.3255 37.2705V28.6993C14.3255 28.165 13.8919 27.7314 13.3576 27.7314H15.8043C16.3405 27.7314 16.7741 28.165 16.7741 28.6993V37.0382C16.7741 37.9383 17.5058 38.67 18.4059 38.67Z" fill="#FE9901"/>
    <path d="M78.2784 56.5376H86.3939V64.2938H78.2784V56.5376Z" fill="#FFDFCF"/>
    <path d="M83.5044 56.5376H86.3944V64.2954H83.5044V56.5376Z" fill="#FFCEBF"/>
    <path d="M96.4329 68.1677V76.5618L95.2308 79.776L96.4329 82.9911V88.314C96.4329 89.4077 95.5461 90.2944 94.4525 90.2944H76.478L68.2397 82.9911V67.0082L78.2781 62.8291L82.3353 64.0583L86.3944 62.8291L95.3624 66.563C96.0109 66.8321 96.4329 67.465 96.4329 68.1677Z" fill="#FEA613"/>
    <path d="M96.4329 68.1677V76.5617L95.2309 79.7759L96.4329 82.9911V88.314C96.4329 89.4076 95.5462 90.2944 94.4526 90.2944H91.8791C92.8618 90.0244 93.543 89.1308 93.543 88.1117V65.8042L95.3625 66.5622C96.0108 66.8322 96.4329 67.4656 96.4329 68.1677Z" fill="#FE9901"/>
    <path d="M83.7872 67.256V90.2944H80.8837V67.256C80.8837 66.4546 81.534 65.8042 82.3354 65.8042C83.1387 65.8042 83.7872 66.4546 83.7872 67.256Z" fill="#FE9901"/>
    <path d="M87.0843 58.0039H77.5874C74.7619 58.0039 72.4715 55.7134 72.4715 52.8879V43.8851L82.3469 42.9126L92.2003 43.8851V52.8881C92.2003 55.7134 89.9098 58.0039 87.0843 58.0039Z" fill="#FFDFCF"/>
    <path d="M92.1996 43.8848V52.8876C92.1996 55.7137 89.9097 58.0036 87.0836 58.0036H84.304C87.1301 58.0036 89.42 55.7137 89.42 52.8876V43.8848L90.1075 43.6782L92.1996 43.8848Z" fill="#FFCEBF"/>
    <path d="M93.3005 38.6692L82.3355 40.5139L71.3717 38.6692C71.3717 33.9719 75.1795 30.1641 79.8768 30.1641H84.7954C89.4925 30.1641 93.3005 33.9719 93.3005 38.6692Z" fill="#FFD15B"/>
    <path d="M93.3009 38.6699L91.371 38.9939L90.8523 38.6699C90.8523 33.972 87.0448 30.1646 82.3469 30.1646H84.7955C89.4915 30.1646 93.3009 33.972 93.3009 38.6699Z" fill="#FEA613"/>
    <path d="M78.2784 62.8291L81.2202 68.6807C81.6813 69.598 82.9908 69.598 83.452 68.6807L86.3939 62.8291H78.2784Z" fill="#0593FC"/>
    <path d="M86.3945 62.8291L83.4513 68.6816C82.99 69.5987 81.6807 69.5987 81.2197 68.6814L80.8914 68.0283L83.5045 62.8291H86.3945Z" fill="#0181FA"/>
    <path d="M68.2397 76.561H96.4329V82.9914H68.2397V76.561Z" fill="#EAF6FF"/>
    <path d="M80.8837 76.561H83.7872V82.9914H80.8837V76.561Z" fill="#C8EFFE"/>
    <path d="M93.543 76.561H96.433V82.9914H93.543V76.561Z" fill="#C8EFFE"/>
    <path d="M82.3358 49.5507C81.5339 49.5507 80.8841 48.9007 80.8841 48.0989V43.8854C80.8841 43.0836 81.5339 42.4336 82.3358 42.4336C83.1378 42.4336 83.7876 43.0836 83.7876 43.8854V48.0991C83.7876 48.9007 83.1376 49.5507 82.3358 49.5507Z" fill="#FFCEBF"/>
    <path d="M82.3359 55.0405C80.794 55.0405 79.3761 54.1377 78.7236 52.7407C78.3844 52.0143 78.6982 51.1504 79.4247 50.8111C80.1511 50.4717 81.0152 50.7857 81.3546 51.5122C81.5317 51.8916 81.9169 52.137 82.3359 52.137C82.755 52.137 83.1402 51.8917 83.3173 51.5122C83.6567 50.7859 84.5205 50.4717 85.2472 50.8111C85.9737 51.1502 86.2874 52.0143 85.9483 52.7407C85.2958 54.1379 83.8779 55.0405 82.3359 55.0405Z" fill="#FFCEBF"/>
    <path d="M95.2736 39.7791V42.7755C95.2736 43.3872 94.778 43.8847 94.1663 43.8847H70.5066C69.8949 43.8847 69.3974 43.3872 69.3974 42.7755V39.7791C69.3974 39.1655 69.8949 38.67 70.5066 38.67H78.3209C79.1861 38.67 79.8888 37.9673 79.8888 37.1021V28.6993C79.8888 28.165 80.3224 27.7314 80.8566 27.7314H83.8143C84.3505 27.7314 84.7841 28.165 84.7841 28.6993V37.1021C84.7841 37.9673 85.4848 38.67 86.3501 38.67H94.1663C94.778 38.67 95.2736 39.1655 95.2736 39.7791Z" fill="#FEA613"/>
    <path d="M95.2734 39.7791V42.7755C95.2734 43.3872 94.7779 43.8846 94.1662 43.8846H91.3711C91.9847 43.8846 92.4802 43.3872 92.4802 42.7755V39.7791C92.4802 39.1655 91.9847 38.6699 91.3711 38.6699H94.1662C94.7779 38.6699 95.2734 39.1655 95.2734 39.7791Z" fill="#FE9901"/>
    <path d="M86.35 38.67H83.7408C82.9645 38.67 82.3355 38.0409 82.3355 37.2647V28.6993C82.3355 28.165 81.9019 27.7314 81.3676 27.7314H83.8143C84.3505 27.7314 84.7841 28.165 84.7841 28.6993V37.1021C84.7841 37.9673 85.4848 38.67 86.35 38.67Z" fill="#FE9901"/>
    <path d="M42.601 42.9126H54.0624V53.2847H42.601V42.9126Z" fill="#FFDFCF"/>
    <path d="M50.5188 42.9131H54.063V53.285H50.5188V42.9131Z" fill="#FFCEBF"/>
    <path d="M62.2624 34.6276C65.5631 34.6276 68.2388 31.9519 68.2388 28.6512C68.2388 25.3505 65.5631 22.6748 62.2624 22.6748L61.1132 28.6512L62.2624 34.6276Z" fill="#FFCEBF"/>
    <path d="M34.4003 34.6276C31.0996 34.6276 28.4239 31.9519 28.4239 28.6512C28.4239 25.3505 31.0996 22.6748 34.4003 22.6748L35.4435 28.6512L34.4003 34.6276Z" fill="#FFDFCF"/>
    <path d="M35.4438 28.6507L34.4005 34.6281C33.3107 34.6281 32.2906 34.3358 31.4118 33.8287V23.4747C32.2906 22.9656 33.3107 22.6753 34.4005 22.6753L35.4438 28.6507Z" fill="#FFCEBF"/>
    <path d="M55.0373 44.6913H41.6254C37.635 44.6913 34.4003 41.4564 34.4003 37.4662V22.6751L48.3313 21.0391L62.2624 22.6751V37.4662C62.2624 41.4564 59.0277 44.6913 55.0373 44.6913Z" fill="#FFDFCF"/>
    <path d="M62.2626 22.6754V37.4659C62.2626 41.4573 59.0281 44.6918 55.0368 44.6918H51.5487C55.54 44.6918 58.7746 41.4573 58.7746 37.4659V22.6754L59.6818 22.3721L62.2626 22.6754Z" fill="#FFCEBF"/>
    <path d="M76.4781 90.2944H64.2137L48.3315 88.3113L32.4492 90.2944H20.1848L27.461 61.2515C27.7533 60.0785 28.3088 59.0061 29.0695 58.1022L35.5521 55.4832L42.5999 51.5054H54.063L62.4425 56.1374L67.5934 58.1022C68.3541 59.0061 68.9096 60.0785 69.2019 61.2515L76.4781 90.2944Z" fill="#0593FC"/>
    <path d="M76.4781 90.2944H72.9358L65.6596 61.2515C65.3674 60.0785 64.8099 59.0061 64.0511 58.1022C63.2517 57.144 62.2219 56.3775 61.0392 55.8858L50.5188 51.5054H54.063L62.4425 56.1374L67.5934 58.1022C68.3541 59.0061 68.9096 60.0785 69.2019 61.2515L76.4781 90.2944Z" fill="#0181FA"/>
    <path d="M67.5934 58.1022C65.4197 60.5972 64.2137 63.7989 64.2137 67.1282V70.8999L63.4985 75.8306L64.2137 79.9792V90.2944H32.4493V79.9792L34.0265 75.44L32.4493 70.8999V67.1282C32.4493 63.7989 31.2434 60.5972 29.0696 58.1022C29.869 57.144 30.8969 56.3775 32.0815 55.8858L42.6 51.5054L46.8797 58.0325L47.1101 58.3828C47.6869 59.2636 48.9761 59.2636 49.5529 58.3828L49.7833 58.0325L54.063 51.5054L64.5815 55.8858C65.7662 56.3775 66.794 57.144 67.5934 58.1022Z" fill="#FEA613"/>
    <path d="M67.5934 58.102C65.4196 60.597 64.2137 63.7987 64.2137 67.128V70.9007L63.4985 75.8304L64.2137 79.979V90.2942H60.6695V67.128C60.6695 64.2148 61.5928 61.3994 63.2799 59.0696C63.728 58.451 63.6378 57.5933 63.0511 57.1041C62.4522 56.6047 61.7753 56.192 61.0374 55.8858L53.3025 52.6648L54.0632 51.5054L64.5817 55.8858C65.7661 56.3773 66.794 57.1438 67.5934 58.102Z" fill="#FE9901"/>
    <path d="M49.7832 58.0327V90.2946H46.8797V58.0327L47.1101 58.3831C47.6869 59.2638 48.9761 59.2638 49.5529 58.3831L49.7832 58.0327Z" fill="#FE9901"/>
    <path d="M32.4492 70.9009H64.2136V79.9792H32.4492V70.9009Z" fill="#EAF6FF"/>
    <path d="M46.8797 70.9009H49.7832V79.9792H46.8797V70.9009Z" fill="#C8EFFE"/>
    <path d="M60.6696 70.9009H64.2138V79.9792H60.6696V70.9009Z" fill="#C8EFFE"/>
    <path d="M48.3315 33.32C47.5295 33.32 46.8797 32.67 46.8797 31.8682V27.1969C46.8797 26.3951 47.5295 25.7451 48.3315 25.7451C49.1334 25.7451 49.7832 26.3951 49.7832 27.1969V31.8682C49.7832 32.67 49.1334 33.32 48.3315 33.32Z" fill="#FFCEBF"/>
    <path d="M48.3314 39.9075C46.385 39.9075 44.5955 38.7682 43.7719 37.005C43.4327 36.2785 43.7465 35.4146 44.473 35.0753C45.1998 34.7358 46.0635 35.0499 46.4028 35.7764C46.7511 36.5222 47.5081 37.0042 48.3314 37.0042C49.1546 37.0042 49.9117 36.5222 50.2599 35.7764C50.5992 35.0499 51.4635 34.7362 52.1898 35.0753C52.9162 35.4146 53.23 36.2785 52.8909 37.005C52.0672 38.7682 50.2777 39.9075 48.3314 39.9075Z" fill="#FFCEBF"/>
    <path d="M63.8169 16.3073L61.3702 16.5705H61.3567L48.1612 17.9874L32.8461 16.3073C32.8461 13.6515 33.7094 11.1951 35.1708 9.20526L36.8239 8.90523L37.1975 7.05666C39.2764 5.33197 41.9457 4.29639 44.8589 4.29639H51.8041C54.7173 4.29639 57.3866 5.33197 59.4655 7.05666L60.0423 8.58391L61.5038 9.22075C62.9575 11.2068 63.8169 13.6573 63.8169 16.3073Z" fill="#FFD15B"/>
    <path d="M63.8168 16.3073L61.3701 16.5705H61.3566L60.5513 16.3073C60.5513 9.6737 55.174 4.29639 48.5405 4.29639H51.804C54.7172 4.29639 57.3865 5.33197 59.4654 7.05666L60.0423 8.58391L61.5037 9.22075C62.9574 11.2068 63.8168 13.6573 63.8168 16.3073Z" fill="#FEA613"/>
    <path d="M66.6043 17.873V21.1094C66.6043 21.9747 65.9036 22.6754 65.0384 22.6754H31.6247C30.7595 22.6754 30.0587 21.9747 30.0587 21.1094V17.873C30.0587 17.0077 30.7595 16.307 31.6247 16.307H43.3201C44.1776 16.307 44.8744 15.6102 44.8744 14.7527V2.22692C44.8744 1.47201 45.4861 0.858398 46.2429 0.858398H50.4201C51.175 0.858398 51.7886 1.47201 51.7886 2.22692V14.7527C51.7886 15.6102 52.4855 16.307 53.343 16.307H65.0384C65.9036 16.307 66.6043 17.0077 66.6043 17.873Z" fill="#FEA613"/>
    <path d="M53.3429 16.307H49.7484C49.0806 16.307 48.5405 15.767 48.5405 15.0992V2.22692C48.5405 1.47201 47.9269 0.858398 47.172 0.858398H50.4201C51.175 0.858398 51.7886 1.47201 51.7886 2.22692V14.7527C51.7886 15.6102 52.4854 16.307 53.3429 16.307Z" fill="#FE9901"/>
    <path d="M40.2675 10.8752C39.9869 11.2914 39.5281 11.516 39.0616 11.516C38.7829 11.516 38.5022 11.4347 38.2525 11.2682L35.1709 9.20475C35.5329 8.71116 35.9316 8.24466 36.3652 7.813C36.6304 7.54781 36.9091 7.29618 37.1976 7.05615L39.8746 8.8602C40.5405 9.30734 40.7147 10.2094 40.2675 10.8752Z" fill="#FEA613"/>
    <path d="M61.5037 9.22024L59.1906 10.7514L58.4105 11.2682C58.1627 11.4347 57.8801 11.516 57.6014 11.516C57.1349 11.516 56.6761 11.2914 56.3955 10.8752C55.9483 10.2094 56.1225 9.30734 56.7884 8.8602L57.5394 8.35306L59.4654 7.05615C60.232 7.69105 60.9153 8.41693 61.5037 9.22024Z" fill="#FEA613"/>
    <path d="M61.5038 9.22024L59.1907 10.7514C58.7397 9.88418 58.1841 9.07893 57.5396 8.35306L59.4656 7.05615C60.2321 7.69105 60.9154 8.41693 61.5038 9.22024Z" fill="#FE9901"/>
    <path d="M66.6042 17.8726V21.1091C66.6042 21.9743 65.9035 22.675 65.0383 22.675H61.7941C62.6593 22.675 63.36 21.9743 63.36 21.1091V17.8726C63.36 17.0074 62.6593 16.3066 61.7941 16.3066H65.0383C65.9035 16.3066 66.6042 17.0074 66.6042 17.8726Z" fill="#FE9901"/>
</svg>
